<svg width="40" height="40" viewBox="0 0 40 40" fill="none" xmlns="http://www.w3.org/2000/svg">
  <path d="M20 36C28.8366 36 36 28.8366 36 20C36 11.1634 28.8366 4 20 4C11.1634 4 4 11.1634 4 20C4 28.8366 11.1634 36 20 36Z" stroke="currentColor" stroke-width="2"/>
  <path d="M20 12V14M20 26V28M20 18C18.8954 18 18 18.8954 18 20C18 21.1046 18.8954 22 20 22C21.1046 22 22 21.1046 22 20C22 18.8954 21.1046 18 20 18Z" fill="currentColor"/>
  <path d="M15 15L17 17M23 23L25 25M25 15L23 17M17 23L15 25" stroke="currentColor" stroke-width="2" stroke-linecap="round"/>
</svg> 