<svg width="24" height="24" viewBox="0 0 24 24" fill="none" xmlns="http://www.w3.org/2000/svg">
  <path d="M12 12C14.2091 12 16 10.2091 16 8C16 5.79086 14.2091 4 12 4C9.79086 4 8 5.79086 8 8C8 10.2091 9.79086 12 12 12Z" stroke="currentColor" stroke-width="2" stroke-linecap="round" stroke-linejoin="round"/>
  <path d="M6 20V19C6 16.7909 7.79086 15 10 15H14C16.2091 15 18 16.7909 18 19V20" stroke="currentColor" stroke-width="2" stroke-linecap="round" stroke-linejoin="round"/>
  <path d="M17 8C18.6569 8 20 6.65685 20 5M7 8C5.34315 8 4 6.65685 4 5M17 11C18.6569 11 20 12.3431 20 14M7 11C5.34315 11 4 12.3431 4 14" stroke="currentColor" stroke-width="2" stroke-linecap="round"/>
</svg> 