<svg width="1649" height="445" viewBox="0 0 1649 445" fill="none" xmlns="http://www.w3.org/2000/svg">
<path d="M95.9359 252.5C76.8026 252.5 58.4859 249.817 40.9859 244.45C25.1024 239.367 12.1983 233.035 2.2735 225.454C0.502063 224.1 -0.0391533 221.697 0.868064 219.661L12.4747 193.611C13.8001 190.636 17.5714 189.703 20.2566 191.545C29.0554 197.583 39.4651 202.735 51.4859 207C65.9526 212.133 80.7693 214.7 95.9359 214.7C108.769 214.7 119.153 213.3 127.086 210.5C135.019 207.7 140.853 203.967 144.586 199.3C148.319 194.4 150.186 188.917 150.186 182.85C150.186 175.383 147.503 169.433 142.136 165C136.769 160.333 129.769 156.717 121.136 154.15C112.736 151.35 103.286 148.783 92.7859 146.45C82.5193 144.117 72.1359 141.433 61.6359 138.4C51.3693 135.133 41.9193 131.05 33.2859 126.15C24.8859 121.017 18.0026 114.25 12.6359 105.85C7.26927 97.45 4.58594 86.7167 4.58594 73.65C4.58594 60.35 8.08594 48.2167 15.0859 37.25C22.3193 26.05 33.1693 17.1833 47.6359 10.65C62.3359 3.88333 80.8859 0.5 103.286 0.5C117.986 0.5 132.569 2.36667 147.036 6.10001C159.961 9.43556 171.396 14.0749 181.342 20.0181C183.396 21.2457 184.186 23.8006 183.286 26.0179L172.676 52.1553C171.524 54.9928 168.118 56.1309 165.425 54.6725C156.046 49.5931 146.417 45.769 136.536 43.2C124.869 39.9333 113.669 38.3 102.936 38.3C90.3359 38.3 80.0693 39.8167 72.1359 42.85C64.4359 45.8833 58.7193 49.85 54.9859 54.75C51.4859 59.65 49.7359 65.25 49.7359 71.55C49.7359 79.0167 52.3026 85.0833 57.4359 89.75C62.8026 94.1833 69.6859 97.6833 78.0859 100.25C86.7193 102.817 96.2859 105.383 106.786 107.95C117.286 110.283 127.669 112.967 137.936 116C148.436 119.033 157.886 123 166.286 127.9C174.919 132.8 181.803 139.45 186.936 147.85C192.303 156.25 194.986 166.867 194.986 179.7C194.986 192.767 191.369 204.9 184.136 216.1C177.136 227.067 166.286 235.933 151.586 242.7C136.886 249.233 118.336 252.5 95.9359 252.5Z" fill="black"/>
<path d="M345.453 252.5C311.853 252.5 285.486 243.05 266.353 224.15C247.453 205.25 238.003 177.95 238.003 142.25V9C238.003 6.23857 240.242 4 243.003 4H278.503C281.265 4 283.503 6.23857 283.503 9V140.5C283.503 165.7 288.87 184.017 299.603 195.45C310.57 206.883 325.97 212.6 345.803 212.6C365.636 212.6 380.92 206.883 391.653 195.45C402.386 184.017 407.753 165.7 407.753 140.5V9C407.753 6.23857 409.992 4 412.753 4H447.553C450.315 4 452.553 6.23857 452.553 9V142.25C452.553 177.95 442.986 205.25 423.853 224.15C404.953 243.05 378.82 252.5 345.453 252.5Z" fill="black"/>
<path d="M521.275 249C518.514 249 516.275 246.761 516.275 244V8.99999C516.275 6.23857 518.514 4 521.275 4H617.075C638.775 4 657.325 7.5 672.725 14.5C688.358 21.5 700.375 31.5333 708.775 44.6C717.175 57.6667 721.375 73.1833 721.375 91.15C721.375 109.117 717.175 124.633 708.775 137.7C700.375 150.533 688.358 160.45 672.725 167.45C657.325 174.217 638.775 177.6 617.075 177.6H553.402C548.968 177.6 546.728 172.257 549.836 169.095L553.209 165.663C556.347 162.472 561.775 164.693 561.775 169.168V244C561.775 246.761 559.536 249 556.775 249H521.275ZM679.185 249C677.55 249 676.018 248.2 675.083 246.859L620.101 167.959C617.791 164.644 620.163 160.1 624.204 160.1H660.673C662.304 160.1 663.832 160.895 664.768 162.231L720.06 241.131C722.382 244.444 720.012 249 715.966 249H679.185ZM561.775 149.186C561.775 153.722 556.222 155.914 553.124 152.602L549.348 148.566C546.359 145.371 548.625 140.15 552.999 140.15H614.975C635.042 140.15 650.092 135.833 660.125 127.2C670.392 118.567 675.525 106.55 675.525 91.15C675.525 75.5167 670.392 63.5 660.125 55.1C650.092 46.7 635.042 42.5 614.975 42.5H552.754C548.417 42.5 546.137 37.3561 549.049 34.1424L553.07 29.7054C556.142 26.3162 561.775 28.489 561.775 33.063V149.186Z" fill="black"/>
<path d="M745.364 249C741.736 249 739.315 245.257 740.804 241.948L846.554 6.9482C847.362 5.15394 849.146 4 851.114 4H889.452C891.418 4 893.201 5.15143 894.009 6.94276L1000.1 241.943C1001.59 245.252 999.169 249 995.538 249H958.975C956.976 249 955.17 247.81 954.381 245.973L863.826 35.1231C862.408 31.8233 864.829 28.15 868.42 28.15H871.453C875.041 28.15 877.461 31.8179 876.05 35.117L785.829 245.967C785.041 247.807 783.233 249 781.232 249H745.364ZM795.383 192.3C791.951 192.3 789.54 188.923 790.653 185.677L799.472 159.977C800.165 157.957 802.065 156.6 804.201 156.6H929.36C931.496 156.6 933.396 157.957 934.09 159.977L942.908 185.677C944.022 188.923 941.61 192.3 938.179 192.3H795.383Z" fill="black"/>
<path d="M1039.44 249C1036.68 249 1034.44 246.761 1034.44 244V8.99999C1034.44 6.23857 1036.68 4 1039.44 4H1149.24C1178.64 4 1201.04 9.83333 1216.44 21.5C1231.84 32.9333 1239.54 48.3333 1239.54 67.7C1239.54 80.7667 1236.51 91.9667 1230.44 101.3C1224.37 110.4 1216.21 117.517 1205.94 122.65C1198.22 126.421 1189.94 128.741 1181.12 129.61C1177.42 129.974 1174.99 126.088 1176.66 122.764L1177.96 120.164C1178.8 118.47 1180.54 117.39 1182.43 117.444C1194.96 117.802 1206.3 120.354 1216.44 125.1C1227.41 130 1236.04 137.233 1242.34 146.8C1248.87 156.367 1252.14 168.267 1252.14 182.5C1252.14 203.5 1244.09 219.833 1227.99 231.5C1211.89 243.167 1187.97 249 1156.24 249H1039.44ZM1079.94 208.3C1079.94 211.061 1082.18 213.3 1084.94 213.3H1153.44C1170.47 213.3 1183.54 210.5 1192.64 204.9C1201.74 199.3 1206.29 190.317 1206.29 177.95C1206.29 165.817 1201.74 156.95 1192.64 151.35C1183.54 145.517 1170.47 142.6 1153.44 142.6H1081.44C1078.68 142.6 1076.44 140.361 1076.44 137.6V112.25C1076.44 109.489 1078.68 107.25 1081.44 107.25H1144.34C1160.21 107.25 1172.34 104.45 1180.74 98.85C1189.37 93.25 1193.69 84.85 1193.69 73.65C1193.69 62.2167 1189.37 53.7 1180.74 48.1C1172.34 42.5 1160.21 39.7 1144.34 39.7H1084.94C1082.18 39.7 1079.94 41.9386 1079.94 44.7V208.3Z" fill="black"/>
<path d="M1472.9 8.99999C1472.9 6.23857 1475.14 4 1477.9 4H1513.4C1516.16 4 1518.4 6.23857 1518.4 9V244C1518.4 246.761 1516.16 249 1513.4 249H1477.9C1475.14 249 1472.9 246.761 1472.9 244V8.99999ZM1346.2 244C1346.2 246.761 1343.96 249 1341.2 249H1305.7C1302.94 249 1300.7 246.761 1300.7 244V8.99999C1300.7 6.23857 1302.94 4 1305.7 4H1341.2C1343.96 4 1346.2 6.23857 1346.2 9V244ZM1476.4 139C1476.4 141.761 1474.16 144 1471.4 144H1347.35C1344.59 144 1342.35 141.761 1342.35 139V110.15C1342.35 107.389 1344.59 105.15 1347.35 105.15H1471.4C1474.16 105.15 1476.4 107.389 1476.4 110.15V139Z" fill="black"/>
<path d="M1589.05 249C1586.29 249 1584.05 246.761 1584.05 244V8.99999C1584.05 6.23857 1586.29 4 1589.05 4H1624.55C1627.31 4 1629.55 6.23857 1629.55 9V244C1629.55 246.761 1627.31 249 1624.55 249H1589.05Z" fill="black"/>
<path d="M68.6223 444.75C59.0556 444.75 50.2473 443.233 42.1973 440.2C34.2639 437.05 27.3223 432.675 21.3723 427.075C15.4223 421.358 10.8139 414.65 7.54727 406.95C4.2806 399.25 2.64727 390.85 2.64727 381.75C2.64727 372.65 4.2806 364.25 7.54727 356.55C10.8139 348.85 15.4223 342.2 21.3723 336.6C27.4389 330.883 34.4973 326.508 42.5473 323.475C50.5973 320.325 59.4056 318.75 68.9723 318.75C79.3556 318.75 88.6889 320.442 96.9723 323.825C103.837 326.59 109.805 330.407 114.878 335.275C116.794 337.115 116.659 340.152 114.757 342.007L107.332 349.251C105.373 351.163 102.258 351.119 100.153 349.369C96.4065 346.255 92.4296 343.865 88.2223 342.2C82.7389 339.867 76.6723 338.7 70.0223 338.7C63.6056 338.7 57.6556 339.75 52.1723 341.85C46.6889 343.95 41.9639 346.925 37.9973 350.775C34.0306 354.625 30.9389 359.175 28.7223 364.425C26.6223 369.675 25.5723 375.45 25.5723 381.75C25.5723 387.933 26.6223 393.65 28.7223 398.9C30.9389 404.15 34.0306 408.758 37.9973 412.725C41.9639 416.575 46.6306 419.55 51.9973 421.65C57.3639 423.75 63.3139 424.8 69.8473 424.8C75.9139 424.8 81.7473 423.867 87.3473 422C91.5331 420.548 95.5625 418.408 99.4356 415.579C101.783 413.865 105.124 414.168 106.887 416.479L116.572 429.175C110.156 434.308 102.689 438.217 94.1723 440.9C85.7723 443.467 77.2556 444.75 68.6223 444.75ZM99.3627 426.796C96.8893 426.455 95.0473 424.34 95.0473 421.844V385.35C95.0473 382.589 97.2858 380.35 100.047 380.35H111.572C114.334 380.35 116.572 382.589 116.572 385.35V429.175L99.3627 426.796Z" fill="black"/>
<path d="M151.578 443C148.817 443 146.578 440.761 146.578 438V325.5C146.578 322.739 148.817 320.5 151.578 320.5H196.978C207.828 320.5 217.103 322.25 224.803 325.75C232.62 329.25 238.628 334.267 242.828 340.8C247.028 347.333 249.128 355.092 249.128 364.075C249.128 373.058 247.028 380.817 242.828 387.35C238.628 393.767 232.62 398.725 224.803 402.225C217.103 405.608 207.828 407.3 196.978 407.3H166.33C163.671 407.3 162.328 404.096 164.192 402.2V402.2C166.073 400.286 169.328 401.618 169.328 404.302V438C169.328 440.761 167.089 443 164.328 443H151.578ZM229.338 443C227.703 443 226.171 442.2 225.236 440.859L201.229 406.409C198.919 403.094 201.291 398.55 205.331 398.55H217.476C219.107 398.55 220.635 399.345 221.571 400.681L245.713 435.131C248.035 438.444 245.665 443 241.618 443H229.338ZM169.328 391.646C169.328 394.432 165.917 395.779 164.014 393.744V393.744C162.178 391.782 163.57 388.575 166.257 388.575H195.928C205.961 388.575 213.486 386.417 218.503 382.1C223.636 377.783 226.203 371.775 226.203 364.075C226.203 356.258 223.636 350.25 218.503 346.05C213.486 341.85 205.961 339.75 195.928 339.75H166.21C163.506 339.75 162.085 336.543 163.9 334.539V334.539C165.815 332.426 169.328 333.781 169.328 336.632V391.646Z" fill="black"/>
<path d="M331.981 444.75C322.414 444.75 313.606 443.175 305.556 440.025C297.506 436.875 290.506 432.5 284.556 426.9C278.606 421.183 273.998 414.533 270.731 406.95C267.464 399.25 265.831 390.85 265.831 381.75C265.831 372.65 267.464 364.308 270.731 356.725C273.998 349.025 278.606 342.375 284.556 336.775C290.506 331.058 297.506 326.625 305.556 323.475C313.606 320.325 322.356 318.75 331.806 318.75C341.373 318.75 350.123 320.325 358.056 323.475C366.106 326.625 373.106 331.058 379.056 336.775C385.006 342.375 389.614 349.025 392.881 356.725C396.148 364.308 397.781 372.65 397.781 381.75C397.781 390.85 396.148 399.25 392.881 406.95C389.614 414.65 385.006 421.3 379.056 426.9C373.106 432.5 366.106 436.875 358.056 440.025C350.123 443.175 341.431 444.75 331.981 444.75ZM331.806 424.8C337.989 424.8 343.706 423.75 348.956 421.65C354.206 419.55 358.756 416.575 362.606 412.725C366.456 408.758 369.431 404.208 371.531 399.075C373.748 393.825 374.856 388.05 374.856 381.75C374.856 375.45 373.748 369.733 371.531 364.6C369.431 359.35 366.456 354.8 362.606 350.95C358.756 346.983 354.206 343.95 348.956 341.85C343.706 339.75 337.989 338.7 331.806 338.7C325.623 338.7 319.906 339.75 314.656 341.85C309.523 343.95 304.973 346.983 301.006 350.95C297.156 354.8 294.123 359.35 291.906 364.6C289.806 369.733 288.756 375.45 288.756 381.75C288.756 387.933 289.806 393.65 291.906 398.9C294.123 404.15 297.156 408.758 301.006 412.725C304.856 416.575 309.406 419.55 314.656 421.65C319.906 423.75 325.623 424.8 331.806 424.8Z" fill="black"/>
<path d="M474.57 444.75C457.77 444.75 444.587 440.025 435.02 430.575C425.57 421.125 420.845 407.475 420.845 389.625V325.5C420.845 322.739 423.084 320.5 425.845 320.5H438.595C441.357 320.5 443.595 322.739 443.595 325.5V388.75C443.595 401.35 446.279 410.508 451.645 416.225C457.129 421.942 464.829 424.8 474.745 424.8C484.662 424.8 492.304 421.942 497.67 416.225C503.037 410.508 505.72 401.35 505.72 388.75V325.5C505.72 322.739 507.959 320.5 510.72 320.5H523.12C525.882 320.5 528.12 322.739 528.12 325.5V389.625C528.12 407.475 523.337 421.125 513.77 430.575C504.32 440.025 491.254 444.75 474.57 444.75Z" fill="black"/>
<path d="M564.981 443C562.22 443 559.981 440.761 559.981 438V325.5C559.981 322.739 562.22 320.5 564.981 320.5H610.381C621.231 320.5 630.506 322.25 638.206 325.75C646.023 329.25 652.031 334.267 656.231 340.8C660.431 347.333 662.531 355.092 662.531 364.075C662.531 373.058 660.431 380.817 656.231 387.35C652.031 393.883 646.023 398.9 638.206 402.4C630.506 405.9 621.231 407.65 610.381 407.65H579.684C577.006 407.65 575.63 404.444 577.475 402.503V402.503C579.372 400.508 582.731 401.85 582.731 404.603V438C582.731 440.761 580.493 443 577.731 443H564.981ZM582.731 391.495C582.731 394.314 579.269 395.665 577.36 393.591V393.591C575.534 391.607 576.941 388.4 579.637 388.4H609.331C619.365 388.4 626.89 386.3 631.906 382.1C637.04 377.783 639.606 371.775 639.606 364.075C639.606 356.258 637.04 350.25 631.906 346.05C626.89 341.85 619.365 339.75 609.331 339.75H579.614C576.91 339.75 575.488 336.543 577.304 334.539V334.539C579.219 332.426 582.731 333.781 582.731 336.632V391.495Z" fill="black"/>
<path d="M756.148 381.85C756.148 379.089 758.387 376.85 761.148 376.85H812.223C814.985 376.85 817.223 379.089 817.223 381.85V391.1C817.223 393.861 814.985 396.1 812.223 396.1H761.148C758.387 396.1 756.148 393.861 756.148 391.1V381.85ZM758.073 438C758.073 440.761 755.834 443 753.073 443H740.323C737.562 443 735.323 440.761 735.323 438V325.5C735.323 322.739 737.562 320.5 740.323 320.5H819.748C822.509 320.5 824.748 322.739 824.748 325.5V334.575C824.748 337.336 822.509 339.575 819.748 339.575H763.073C760.312 339.575 758.073 341.814 758.073 344.575V438Z" fill="black"/>
<path d="M851.749 443C848.987 443 846.749 440.761 846.749 438V325.5C846.749 322.739 848.987 320.5 851.749 320.5H864.499C867.26 320.5 869.499 322.739 869.499 325.5V438C869.499 440.761 867.26 443 864.499 443H851.749Z" fill="black"/>
<path d="M907.633 443C904.871 443 902.633 440.761 902.633 438V325.5C902.633 322.739 904.871 320.5 907.633 320.5H918.981C920.485 320.5 921.909 321.177 922.858 322.342L994.212 409.95C995.802 411.902 994.413 414.825 991.896 414.825V414.825C990.245 414.825 988.908 413.487 988.908 411.837V325.5C988.908 322.739 991.146 320.5 993.908 320.5H1006.48C1009.24 320.5 1011.48 322.739 1011.48 325.5V438C1011.48 440.761 1009.24 443 1006.48 443H995.134C993.63 443 992.207 442.323 991.257 441.158L919.903 353.55C918.313 351.598 919.702 348.675 922.22 348.675V348.675C923.87 348.675 925.208 350.013 925.208 351.663V438C925.208 440.761 922.969 443 920.208 443H907.633Z" fill="black"/>
<path d="M1034.72 443C1031.09 443 1028.67 439.257 1030.16 435.948L1080.78 323.448C1081.59 321.654 1083.37 320.5 1085.34 320.5H1101.28C1103.24 320.5 1105.03 321.651 1105.84 323.443L1156.62 435.943C1158.12 439.252 1155.7 443 1152.06 443H1139.3C1137.3 443 1135.5 441.81 1134.71 439.973L1090.38 336.759C1089.53 334.779 1090.98 332.575 1093.14 332.575V332.575C1095.29 332.575 1096.74 334.776 1095.89 336.755L1051.73 439.967C1050.94 441.807 1049.13 443 1047.13 443H1034.72ZM1059.36 414.65C1055.93 414.65 1053.52 411.273 1054.63 408.027L1057.32 400.177C1058.02 398.157 1059.92 396.8 1062.05 396.8H1121.06C1123.2 396.8 1125.1 398.157 1125.79 400.177L1128.48 408.027C1129.6 411.273 1127.19 414.65 1123.76 414.65H1059.36Z" fill="black"/>
<path d="M1180.39 443C1177.63 443 1175.39 440.761 1175.39 438V325.5C1175.39 322.739 1177.63 320.5 1180.39 320.5H1191.74C1193.24 320.5 1194.66 321.177 1195.61 322.342L1266.97 409.95C1268.56 411.902 1267.17 414.825 1264.65 414.825V414.825C1263 414.825 1261.66 413.487 1261.66 411.837V325.5C1261.66 322.739 1263.9 320.5 1266.66 320.5H1279.24C1282 320.5 1284.24 322.739 1284.24 325.5V438C1284.24 440.761 1282 443 1279.24 443H1267.89C1266.38 443 1264.96 442.323 1264.01 441.158L1192.66 353.55C1191.07 351.598 1192.46 348.675 1194.97 348.675V348.675C1196.62 348.675 1197.96 350.013 1197.96 351.663V438C1197.96 440.761 1195.72 443 1192.96 443H1180.39Z" fill="black"/>
<path d="M1373.76 444.75C1364.43 444.75 1355.74 443.233 1347.69 440.2C1339.75 437.05 1332.81 432.675 1326.86 427.075C1321.03 421.358 1316.48 414.65 1313.21 406.95C1309.94 399.25 1308.31 390.85 1308.31 381.75C1308.31 372.65 1309.94 364.25 1313.21 356.55C1316.48 348.85 1321.09 342.2 1327.04 336.6C1332.99 330.883 1339.93 326.508 1347.86 323.475C1355.79 320.325 1364.49 318.75 1373.94 318.75C1383.97 318.75 1393.13 320.5 1401.41 324C1408.2 326.775 1414.13 330.687 1419.2 335.738C1421.08 337.614 1420.89 340.652 1418.96 342.473L1411.38 349.599C1409.36 351.501 1406.19 351.366 1404.11 349.533C1400.64 346.481 1396.88 344.095 1392.84 342.375C1387.35 339.925 1381.4 338.7 1374.99 338.7C1368.57 338.7 1362.68 339.75 1357.31 341.85C1352.06 343.95 1347.45 346.925 1343.49 350.775C1339.64 354.625 1336.6 359.175 1334.39 364.425C1332.29 369.675 1331.24 375.45 1331.24 381.75C1331.24 388.05 1332.29 393.825 1334.39 399.075C1336.6 404.325 1339.64 408.875 1343.49 412.725C1347.45 416.575 1352.06 419.55 1357.31 421.65C1362.68 423.75 1368.57 424.8 1374.99 424.8C1381.4 424.8 1387.35 423.633 1392.84 421.3C1396.87 419.497 1400.62 417.032 1404.09 413.903C1406.17 412.019 1409.39 411.874 1411.43 413.813L1418.97 420.998C1420.9 422.834 1421.07 425.879 1419.17 427.745C1414.11 432.718 1408.19 436.636 1401.41 439.5C1393.13 443 1383.91 444.75 1373.76 444.75Z" fill="black"/>
<path d="M1465.21 376.425C1465.21 373.664 1467.45 371.425 1470.21 371.425H1521.11C1523.87 371.425 1526.11 373.664 1526.11 376.425V385.15C1526.11 387.911 1523.87 390.15 1521.11 390.15H1470.21C1467.45 390.15 1465.21 387.911 1465.21 385.15V376.425ZM1466.96 418.925C1466.96 421.686 1469.2 423.925 1471.96 423.925H1531.08C1533.85 423.925 1536.08 426.164 1536.08 428.925V438C1536.08 440.761 1533.85 443 1531.08 443H1449.21C1446.45 443 1444.21 440.761 1444.21 438V325.5C1444.21 322.739 1446.45 320.5 1449.21 320.5H1528.63C1531.4 320.5 1533.63 322.739 1533.63 325.5V334.575C1533.63 337.336 1531.4 339.575 1528.63 339.575H1471.96C1469.2 339.575 1466.96 341.814 1466.96 344.575V418.925Z" fill="black"/>
<path d="M1599.42 444.75C1589.85 444.75 1580.7 443.408 1571.95 440.725C1564.79 438.436 1558.85 435.639 1554.11 432.336C1552.28 431.061 1551.75 428.647 1552.65 426.611L1556.38 418.236C1557.71 415.261 1561.49 414.326 1564.28 416.008C1568.07 418.291 1572.37 420.288 1577.2 422C1584.43 424.567 1591.84 425.85 1599.42 425.85C1605.84 425.85 1611.03 425.15 1615 423.75C1618.96 422.35 1621.88 420.483 1623.75 418.15C1625.61 415.7 1626.55 412.958 1626.55 409.925C1626.55 406.192 1625.2 403.217 1622.52 401C1619.84 398.667 1616.34 396.858 1612.02 395.575C1607.82 394.175 1603.1 392.892 1597.85 391.725C1592.71 390.558 1587.52 389.217 1582.27 387.7C1577.14 386.067 1572.41 384.025 1568.1 381.575C1563.9 379.008 1560.45 375.625 1557.77 371.425C1555.09 367.225 1553.75 361.858 1553.75 355.325C1553.75 348.675 1555.5 342.608 1559 337.125C1562.61 331.525 1568.04 327.092 1575.27 323.825C1582.62 320.442 1591.9 318.75 1603.1 318.75C1610.45 318.75 1617.74 319.683 1624.97 321.55C1630.67 323.021 1635.79 325 1640.34 327.486C1642.43 328.635 1643.22 331.201 1642.32 333.418L1638.89 341.88C1637.73 344.718 1634.33 345.847 1631.58 344.504C1627.71 342.617 1623.76 341.149 1619.72 340.1C1613.89 338.467 1608.29 337.65 1602.92 337.65C1596.62 337.65 1591.49 338.408 1587.52 339.925C1583.67 341.442 1580.81 343.425 1578.95 345.875C1577.2 348.325 1576.32 351.125 1576.32 354.275C1576.32 358.008 1577.6 361.042 1580.17 363.375C1582.85 365.592 1586.3 367.342 1590.5 368.625C1594.81 369.908 1599.6 371.192 1604.85 372.475C1610.1 373.642 1615.29 374.983 1620.42 376.5C1625.67 378.017 1630.4 380 1634.6 382.45C1638.91 384.9 1642.35 388.225 1644.92 392.425C1647.6 396.625 1648.95 401.933 1648.95 408.35C1648.95 414.883 1647.14 420.95 1643.52 426.55C1640.02 432.033 1634.6 436.467 1627.25 439.85C1619.9 443.117 1610.62 444.75 1599.42 444.75Z" fill="black"/>
</svg>
