<svg width="801" height="225" viewBox="0 0 801 225" fill="none" xmlns="http://www.w3.org/2000/svg">
<g clip-path="url(#clip0_2615_50)">
<path d="M111.866 223.47C114.024 223.47 115.901 221.828 116.457 219.469L158.473 41.9405C159.287 38.494 156.122 35.1594 152.971 35.1956H112.397C110.27 35.2201 107.723 37.3038 107.159 39.6247L64.5962 216.674C63.7615 220.109 65.9586 223.47 69.1043 223.47H111.866Z" fill="#45146C"/>
<path d="M69.128 223.47C67.1993 223.47 65.4615 222.15 64.7288 220.129L0.361334 42.6266C-0.923773 39.0825 1.3774 35.1953 4.76041 35.1953H47.4718C49.4001 35.1953 51.1379 36.5145 51.8706 38.5349L116.238 216.039C117.523 219.582 115.222 223.47 111.839 223.47H69.128Z" fill="#EA0000"/>
<path d="M176.196 223.47C173.802 223.47 171.645 221.833 170.736 219.328L107.247 44.4101C105.653 40.0154 108.509 35.1953 112.707 35.1953H152.988C155.381 35.1953 157.539 36.8311 158.448 39.3365L221.936 214.255C223.531 218.65 220.675 223.47 216.477 223.47H176.196Z" fill="#EA0000"/>
<path d="M256.127 110.204V67.5C256.127 61.1736 257.507 55.6121 260.268 50.8163C263.029 45.9184 266.863 42.0919 271.771 39.3368C276.679 36.5817 282.354 35.2041 288.796 35.2041C295.135 35.2041 300.554 36.6327 305.054 39.4898C309.655 42.2449 313.182 46.0206 315.636 50.8163H310.422C312.876 46.0206 316.352 42.2449 320.851 39.4898C325.452 36.6327 330.922 35.2041 337.262 35.2041C343.806 35.2041 349.481 36.5817 354.287 39.3368C359.195 42.0919 363.029 45.9184 365.79 50.8163C368.551 55.6121 369.931 61.1736 369.931 67.5V110.204H353.06V69.7959C353.06 63.8774 351.679 59.3369 348.919 56.1735C346.26 53.0101 342.375 51.4286 337.262 51.4286C332.047 51.4286 328.111 53.0101 325.452 56.1735C322.794 59.2347 321.465 63.7757 321.465 69.7959V110.204H304.593V69.7959C304.593 63.7757 303.264 59.2347 300.606 56.1735C297.947 53.0101 294.011 51.4286 288.796 51.4286C283.683 51.4286 279.747 53.0101 276.986 56.1735C274.327 59.2347 272.998 63.7757 272.998 69.7959V110.204H256.127Z" fill="#45146C"/>
<path d="M417.604 111.735C410.959 111.735 404.928 110.051 399.506 106.684C394.192 103.316 389.947 98.7754 386.776 93.0612C383.708 87.2449 382.176 80.7655 382.176 73.6225C382.176 66.3777 383.708 59.8979 386.776 54.1837C389.947 48.3674 394.192 43.7755 399.506 40.4082C404.928 36.9388 410.959 35.2041 417.604 35.2041C423.229 35.2041 428.187 36.4286 432.482 38.8776C436.88 41.2244 440.357 44.4899 442.911 48.6735C445.469 52.857 446.745 57.6019 446.745 62.9082V84.0306C446.745 89.3369 445.469 94.0818 442.911 98.2653C440.457 102.449 437.033 105.765 432.635 108.214C428.241 110.561 423.229 111.735 417.604 111.735ZM420.365 95.8163C426.604 95.8163 431.615 93.7244 435.396 89.5408C439.284 85.3573 441.224 80.0001 441.224 73.4694C441.224 69.0815 440.357 65.2041 438.617 61.8368C436.88 58.4694 434.426 55.8674 431.255 54.0306C428.187 52.0917 424.56 51.1225 420.365 51.1225C416.278 51.1225 412.646 52.0917 409.475 54.0306C406.408 55.8674 403.954 58.4694 402.113 61.8368C400.376 65.2041 399.506 69.0815 399.506 73.4694C399.506 77.8573 400.376 81.7347 402.113 85.1021C403.954 88.4694 406.408 91.1223 409.475 93.0612C412.646 94.898 416.278 95.8163 420.365 95.8163ZM440.15 110.204V90.4592L443.064 72.551L440.15 54.7959V36.7347H457.022V110.204H440.15Z" fill="#45146C"/>
<path d="M506.574 111.735C499.929 111.735 493.898 110.051 488.476 106.684C483.161 103.316 478.917 98.7754 475.746 93.0612C472.678 87.2449 471.145 80.7654 471.145 73.6224C471.145 66.3777 472.678 59.8978 475.746 54.1837C478.917 48.3673 483.161 43.7755 488.476 40.4082C493.898 36.9388 499.929 35.2041 506.574 35.2041C512.199 35.2041 517.157 36.4286 521.451 38.8776C525.849 41.2244 529.327 44.4899 531.881 48.6735C534.438 52.857 535.715 57.6019 535.715 62.9082V84.0306C535.715 89.3369 534.438 94.0818 531.881 98.2653C529.427 102.449 526.003 105.765 521.605 108.214C517.211 110.561 512.199 111.735 506.574 111.735ZM509.335 95.8163C513.53 95.8163 517.157 94.898 520.224 93.0612C523.395 91.1223 525.849 88.4694 527.586 85.102C529.327 81.7347 530.194 77.8573 530.194 73.4694C530.194 69.0815 529.327 65.2041 527.586 61.8367C525.849 58.4694 523.395 55.8673 520.224 54.0306C517.157 52.0917 513.53 51.1225 509.335 51.1225C505.247 51.1225 501.616 52.0917 498.445 54.0306C495.378 55.8673 492.924 58.4694 491.083 61.8367C489.346 65.2041 488.476 69.0815 488.476 73.4694C488.476 77.8573 489.346 81.7347 491.083 85.102C492.924 88.4694 495.378 91.1223 498.445 93.0612C501.616 94.898 505.247 95.8163 509.335 95.8163ZM545.991 110.204H529.12V90.4592L532.034 72.551L529.12 54.7959V0H545.991V110.204Z" fill="#45146C"/>
<path d="M594.934 111.734C588.696 111.734 583.124 110.357 578.216 107.602C573.408 104.847 569.627 101.071 566.867 96.2752C564.206 91.3772 562.879 85.7649 562.879 79.4385V36.7344H579.75V78.6732C579.75 82.2445 580.31 85.3057 581.437 87.8568C582.664 90.3058 584.401 92.1934 586.652 93.5201C589.002 94.8467 591.763 95.5099 594.934 95.5099C599.842 95.5099 603.573 94.0814 606.131 91.2242C608.788 88.2651 610.118 84.0812 610.118 78.6732V36.7344H626.99V79.4385C626.99 85.867 625.609 91.5303 622.848 96.4283C620.187 101.224 616.457 105 611.652 107.755C606.844 110.408 601.272 111.734 594.934 111.734Z" fill="#45146C"/>
<path d="M668.031 111.735C663.94 111.735 660.002 111.225 656.222 110.204C652.437 109.082 648.959 107.551 645.792 105.612C642.621 103.572 639.86 101.123 637.51 98.2653L648.246 87.551C650.8 90.5101 653.714 92.7551 656.988 94.2857C660.363 95.7142 664.143 96.4286 668.338 96.4286C672.119 96.4286 674.983 95.8672 676.927 94.7449C678.867 93.6226 679.841 91.9898 679.841 89.847C679.841 87.6019 678.921 85.8674 677.08 84.6429C675.24 83.4184 672.836 82.3978 669.872 81.5817C667.008 80.6633 663.94 79.7449 660.669 78.8266C657.498 77.9082 654.431 76.6837 651.467 75.1531C648.603 73.5203 646.252 71.3265 644.412 68.5714C642.571 65.8163 641.651 62.245 641.651 57.8572C641.651 53.1632 642.724 49.1327 644.872 45.7653C647.119 42.398 650.24 39.7959 654.228 37.9592C658.315 36.1225 663.173 35.2041 668.798 35.2041C674.726 35.2041 679.941 36.2755 684.442 38.4184C689.044 40.4591 692.878 43.5716 695.946 47.7551L685.209 58.4694C683.062 55.8165 680.608 53.8267 677.847 52.5C675.087 51.1734 671.916 50.5102 668.338 50.5102C664.964 50.5102 662.356 51.0203 660.516 52.0408C658.675 53.0614 657.755 54.5407 657.755 56.4796C657.755 58.5203 658.675 60.1022 660.516 61.2245C662.356 62.3468 664.707 63.3165 667.571 64.1327C670.535 64.9489 673.603 65.8672 676.774 66.8878C680.044 67.8061 683.112 69.1328 685.976 70.8674C688.94 72.5001 691.344 74.7448 693.185 77.6021C695.025 80.3572 695.946 83.9797 695.946 88.4694C695.946 95.6124 693.438 101.276 688.43 105.459C683.419 109.643 676.62 111.735 668.031 111.735Z" fill="#45146C"/>
<path d="M295.544 225C289.92 225 284.91 223.826 280.514 221.48C276.117 219.031 272.64 215.714 270.084 211.531C267.63 207.347 266.403 202.602 266.403 197.296V176.174C266.403 170.867 267.681 166.122 270.237 161.939C272.793 157.755 276.27 154.49 280.667 152.143C285.063 149.694 290.023 148.469 295.544 148.469C302.19 148.469 308.172 150.204 313.489 153.674C318.908 157.041 323.152 161.633 326.219 167.449C329.389 173.163 330.974 179.643 330.974 186.888C330.974 194.031 329.389 200.51 326.219 206.327C323.152 212.041 318.908 216.582 313.489 219.949C308.172 223.316 302.19 225 295.544 225ZM292.784 209.082C296.873 209.082 300.452 208.163 303.52 206.327C306.689 204.388 309.143 201.735 310.882 198.367C312.722 195 313.643 191.123 313.643 186.735C313.643 182.347 312.722 178.469 310.882 175.102C309.143 171.735 306.689 169.133 303.52 167.296C300.452 165.357 296.873 164.388 292.784 164.388C288.693 164.388 285.063 165.357 281.894 167.296C278.724 169.133 276.27 171.735 274.532 175.102C272.793 178.469 271.925 182.347 271.925 186.735C271.925 191.123 272.793 195 274.532 198.367C276.27 201.735 278.724 204.388 281.894 206.327C285.063 208.163 288.693 209.082 292.784 209.082ZM256.127 223.469V124.362H264.563H272.998V168.061L270.084 185.816L272.998 203.725V223.469H256.127Z" fill="#45146C"/>
<path d="M375.924 225C369.278 225 363.245 223.317 357.825 219.949C352.508 216.582 348.265 212.041 345.095 206.327C342.028 200.511 340.494 194.031 340.494 186.888C340.494 179.643 342.028 173.163 345.095 167.449C348.265 161.633 352.508 157.041 357.825 153.674C363.245 150.204 369.278 148.47 375.924 148.47C381.548 148.47 386.508 149.694 390.802 152.143C395.196 154.49 398.674 157.756 401.232 161.939C403.785 166.123 405.066 170.868 405.066 176.174V197.296C405.066 202.602 403.785 207.347 401.232 211.531C398.778 215.714 395.35 219.031 390.956 221.48C386.558 223.827 381.548 225 375.924 225ZM378.684 209.082C384.92 209.082 389.932 206.99 393.716 202.806C397.601 198.623 399.545 193.266 399.545 186.735C399.545 182.347 398.674 178.47 396.937 175.102C395.196 171.735 392.742 169.133 389.575 167.296C386.508 165.357 382.877 164.388 378.684 164.388C374.594 164.388 370.965 165.357 367.795 167.296C364.727 169.133 362.273 171.735 360.433 175.102C358.695 178.47 357.825 182.347 357.825 186.735C357.825 191.123 358.695 195 360.433 198.368C362.273 201.735 364.727 204.388 367.795 206.327C370.965 208.164 374.594 209.082 378.684 209.082ZM398.471 223.47V203.725L401.385 185.817L398.471 168.062V150H415.342V223.47H398.471Z" fill="#45146C"/>
<path d="M432.225 223.47V181.531C432.225 175 433.605 169.286 436.366 164.388C439.126 159.388 442.961 155.511 447.869 152.755C452.777 149.898 458.502 148.47 465.047 148.47C471.692 148.47 477.47 149.847 482.378 152.602C487.286 155.357 491.067 159.235 493.728 164.235C496.489 169.133 497.869 174.898 497.869 181.531V223.47H480.998V182.755C480.998 177.347 479.667 173.01 477.01 169.745C474.349 166.378 470.361 164.694 465.047 164.694C459.832 164.694 455.844 166.378 453.084 169.745C450.423 173.01 449.096 177.347 449.096 182.755V223.47H432.225Z" fill="#45146C"/>
<path d="M548.691 225C541.433 225 534.838 223.317 528.906 219.949C523.078 216.582 518.477 211.99 515.102 206.174C511.728 200.357 510.041 193.878 510.041 186.735C510.041 179.49 511.728 173.01 515.102 167.296C518.477 161.48 523.078 156.888 528.906 153.521C534.838 150.153 541.433 148.47 548.691 148.47C554.42 148.47 559.734 149.592 564.642 151.837C569.654 153.98 573.899 157.092 577.373 161.174L566.33 172.347C564.186 169.796 561.575 167.909 558.507 166.684C555.543 165.357 552.273 164.694 548.691 164.694C544.5 164.694 540.77 165.663 537.495 167.602C534.328 169.439 531.82 171.99 529.98 175.255C528.243 178.521 527.372 182.347 527.372 186.735C527.372 191.021 528.243 194.847 529.98 198.215C531.82 201.48 534.328 204.082 537.495 206.021C540.77 207.857 544.5 208.776 548.691 208.776C552.273 208.776 555.543 208.164 558.507 206.939C561.575 205.612 564.186 203.674 566.33 201.123L577.373 212.296C573.899 216.378 569.654 219.541 564.642 221.786C559.734 223.929 554.42 225 548.691 225Z" fill="#45146C"/>
<path d="M621.782 225C614.623 225 608.132 223.317 602.304 219.949C596.475 216.48 591.824 211.837 588.347 206.021C584.972 200.204 583.285 193.725 583.285 186.582C583.285 179.439 584.972 173.01 588.347 167.296C591.824 161.582 596.475 157.041 602.304 153.674C608.132 150.204 614.623 148.47 621.782 148.47C629.041 148.47 635.586 150.153 641.414 153.521C647.242 156.888 651.844 161.48 655.218 167.296C658.696 173.01 660.433 179.439 660.433 186.582C660.433 193.725 658.696 200.204 655.218 206.021C651.844 211.837 647.242 216.48 641.414 219.949C635.586 223.317 629.041 225 621.782 225ZM621.782 208.776C625.973 208.776 629.654 207.857 632.825 206.021C636.096 204.082 638.604 201.429 640.341 198.062C642.181 194.694 643.101 190.868 643.101 186.582C643.101 182.296 642.181 178.521 640.341 175.255C638.5 171.99 635.996 169.439 632.825 167.602C629.654 165.663 625.973 164.694 621.782 164.694C617.691 164.694 614.01 165.663 610.739 167.602C607.568 169.439 605.064 171.99 603.224 175.255C601.487 178.521 600.617 182.296 600.617 186.582C600.617 190.868 601.487 194.694 603.224 198.062C605.064 201.429 607.568 204.082 610.739 206.021C614.01 207.857 617.691 208.776 621.782 208.776Z" fill="#45146C"/>
<path d="M674.461 223.47V150H691.332V223.47H674.461ZM691.332 182.602L685.504 179.694C685.504 170.408 687.548 162.908 691.639 157.194C695.83 151.378 702.118 148.47 710.504 148.47C714.185 148.47 717.509 149.133 720.473 150.46C723.437 151.786 726.198 153.929 728.756 156.888L717.713 168.215C716.382 166.786 714.902 165.766 713.265 165.153C711.627 164.541 709.737 164.235 707.59 164.235C702.885 164.235 699.001 165.715 695.933 168.674C692.866 171.633 691.332 176.276 691.332 182.602Z" fill="#45146C"/>
<path d="M769.642 225C761.874 225 754.972 223.317 748.936 219.949C743.009 216.48 738.354 211.837 734.979 206.021C731.605 200.204 729.918 193.725 729.918 186.582C729.918 179.439 731.605 173.01 734.979 167.296C738.457 161.582 743.108 157.041 748.936 153.674C754.868 150.204 761.513 148.47 768.875 148.47C776.444 148.47 782.832 150.153 788.047 153.521C793.262 156.786 797.457 161.429 800.624 167.449L757.525 210.613L747.709 200.817L786.667 161.939L786.973 174.337C785.44 171.072 783.292 168.521 780.532 166.684C777.771 164.847 773.99 163.929 769.182 163.929C764.581 163.929 760.543 164.898 757.065 166.837C753.691 168.776 751.084 171.48 749.243 174.949C747.403 178.317 746.482 182.194 746.482 186.582C746.482 191.072 747.403 195.051 749.243 198.521C751.084 201.888 753.745 204.541 757.219 206.48C760.696 208.317 764.788 209.235 769.489 209.235C773.683 209.235 777.414 208.572 780.685 207.245C783.96 205.919 786.72 203.98 788.967 201.429L799.704 212.296C796.126 216.48 791.728 219.643 786.513 221.786C781.402 223.929 775.777 225 769.642 225Z" fill="#45146C"/>
<path d="M720.125 38.2649V25.2547H722.33V38.2649H720.125ZM715.754 26.881V24.8721H726.701V26.881H715.754ZM728.618 38.2649V24.8721H730.152L735.731 34.0366H734.734L740.313 24.8721H741.847V38.2649H739.642V28.7369L740.14 28.8708L735.999 35.6629H734.466L730.325 28.8708L730.823 28.7369V38.2649H728.618Z" fill="#45146C"/>
</g>
<defs>
<clipPath id="clip0_2615_50">
<rect width="801" height="225" fill="white"/>
</clipPath>
</defs>
</svg>
