<svg width="769" height="247" viewBox="0 0 769 247" fill="none" xmlns="http://www.w3.org/2000/svg">
<path d="M42.0806 145.61C32.5357 145.61 23.7303 143.867 15.6643 140.381C11.2753 138.377 7.31852 135.922 3.79397 133.016C-1.19147 128.905 -0.893615 121.502 3.24762 116.546C8.84214 109.85 19.1429 110.42 26.5534 115.04C30.8553 117.587 35.4933 118.861 40.4673 118.861C53.7763 118.861 60.4308 111.084 60.4308 95.5311V53.2963C60.4308 39.6342 49.3261 28.5588 35.6277 28.5588H23.932C16.693 28.5588 10.8247 22.7059 10.8247 15.4861C10.8247 8.26625 16.693 2.41341 23.932 2.41341H51.8606C74.5241 2.41341 92.8966 20.7373 92.8966 43.341V93.7211C92.8966 111.151 88.5947 124.157 79.9909 132.738C71.3871 141.319 58.7504 145.61 42.0806 145.61Z" fill="#FF4E59"/>
<path d="M127.016 143.196C116.037 143.196 108.698 131.919 113.167 121.918L160.001 17.1188C163.998 8.17476 172.898 2.41341 182.716 2.41341C192.523 2.41341 201.415 8.16231 205.418 17.0918L252.19 121.418C256.777 131.648 249.271 143.196 238.034 143.196C231.763 143.196 226.108 139.428 223.708 133.649L178.518 24.8465C177.343 22.0172 179.428 18.9051 182.499 18.9051C185.572 18.9051 187.657 22.022 186.477 24.852L141.016 133.881C138.665 139.521 133.141 143.196 127.016 143.196Z" fill="#FF4E59"/>
<path d="M311.922 143.196C307.006 143.196 303.021 139.222 303.021 134.319V92.662C303.021 91.2443 304.993 90.8854 305.495 92.2117C306.045 93.6644 304.007 94.6497 303.204 93.3191L256.945 16.6243C253.176 10.3744 257.689 2.41341 265.002 2.41341H274.65C279.867 2.41341 284.701 5.14227 287.387 9.6028L325.514 72.9274C327.773 76.6786 325.064 81.4529 320.677 81.4529C316.285 81.4529 313.577 76.6694 315.845 72.9184L354.468 9.04099C356.955 4.92787 361.42 2.41341 366.235 2.41341H373.199C380.825 2.41341 385.531 10.7147 381.6 17.2317L335.502 93.6596C334.687 95.0111 332.615 94.0211 333.161 92.5407C333.663 91.1768 335.689 91.5361 335.689 92.9891V134.51C335.689 139.307 331.79 143.196 326.98 143.196H311.922Z" fill="#FF4E59"/>
<path d="M447.632 145.61C436.339 145.61 425.518 144.135 415.166 141.185C409.159 139.395 403.83 137.312 399.181 134.935C393.63 132.097 391.974 125.309 394.538 119.637C398.015 111.944 407.736 109.34 415.5 112.693C417.778 113.676 420.154 114.593 422.627 115.442C430.962 118.123 439.364 119.464 447.834 119.464C454.286 119.464 459.462 118.861 463.361 117.654C467.394 116.313 470.351 114.503 472.233 112.224C474.115 109.945 475.056 107.33 475.056 104.38C475.056 100.626 473.578 97.6764 470.62 95.5311C467.663 93.2518 463.764 91.4417 458.924 90.1009C454.085 88.6261 448.707 87.2853 442.792 86.0786C437.012 84.7378 431.164 83.1289 425.249 81.2517C419.468 79.3746 414.158 76.9612 409.318 74.0115C404.479 71.0618 400.513 67.1735 397.421 62.3466C394.463 57.5198 392.985 51.3522 392.985 43.8438C392.985 35.799 395.135 28.4917 399.437 21.9219C403.874 15.2179 410.461 9.92182 419.199 6.03354C428.072 2.01118 439.163 0 452.472 0C461.344 0 470.082 1.07263 478.686 3.21789C483.217 4.2769 487.467 5.63331 491.439 7.28713C497.481 9.80355 499.678 16.8717 497.212 22.9219C494.13 30.4845 485.093 33.4645 477.378 30.7377C475.461 30.0604 473.545 29.4681 471.628 28.961C465.041 27.0839 458.588 26.1454 452.27 26.1454C445.951 26.1454 440.776 26.8828 436.743 28.3577C432.71 29.8325 429.819 31.7767 428.072 34.1901C426.324 36.4694 425.45 39.151 425.45 42.2348C425.45 45.8549 426.929 48.8047 429.887 51.084C432.844 53.2293 436.743 54.9723 441.582 56.3131C446.422 57.6539 451.732 58.9947 457.513 60.3355C463.428 61.6762 469.276 63.2182 475.056 64.9612C480.972 66.7042 486.349 69.0506 491.188 72.0003C496.028 74.9501 499.927 78.8383 502.884 83.6652C505.976 88.492 507.522 94.5926 507.522 101.967C507.522 109.878 505.304 117.118 500.868 123.688C496.431 130.258 489.777 135.554 480.904 139.576C472.166 143.598 461.075 145.61 447.632 145.61Z" fill="#FF4E59"/>
<path d="M562.31 78.7378C562.31 99.8975 579.509 117.051 600.724 117.051H626.031C633.27 117.051 639.139 122.904 639.139 130.123C639.139 137.343 633.271 143.196 626.032 143.196H584.491C554.31 143.196 529.844 118.794 529.844 88.6931V55.6092C529.844 26.23 553.724 2.41341 583.181 2.41341H623.41C630.649 2.41341 636.517 8.26625 636.517 15.4861C636.517 22.7059 630.649 28.5588 623.41 28.5588H599.414C578.922 28.5588 562.31 45.1268 562.31 65.5645V78.7378Z" fill="#FF4E59"/>
<path d="M716.855 143.196C688.289 143.196 665.131 120.1 665.131 91.6093V18.704C665.131 9.70695 672.444 2.41341 681.465 2.41341C690.486 2.41341 697.799 9.70695 697.799 18.704V81.3523C697.799 100.846 713.643 116.649 733.188 116.649H755.269C762.62 116.649 768.578 122.591 768.578 129.922C768.578 137.253 762.62 143.196 755.269 143.196H716.855Z" fill="#FF4E59"/>
<path d="M625.013 59.3927H581.322C574.825 59.3927 569.559 64.6453 569.559 71.1246C569.559 77.604 574.825 82.8565 581.322 82.8565H625.013C631.509 82.8565 636.776 77.604 636.776 71.1246C636.776 64.6453 631.509 59.3927 625.013 59.3927Z" fill="#FF4E59"/>
<path d="M625.013 59.3927H581.322C574.825 59.3927 569.559 64.6453 569.559 71.1246C569.559 77.604 574.825 82.8565 581.322 82.8565H625.013C631.509 82.8565 636.776 77.604 636.776 71.1246C636.776 64.6453 631.509 59.3927 625.013 59.3927Z" fill="#FF4E59"/>
<path d="M159.471 105.256C159.471 111.736 164.738 116.988 171.234 116.988H193.693C200.189 116.988 205.456 111.736 205.456 105.256C205.456 98.7768 200.189 93.5243 193.693 93.5243H171.234C164.738 93.5243 159.471 98.7768 159.471 105.256Z" fill="#FF4E59"/>
<path d="M61.8135 187.597C64.34 191.893 60.9129 196.873 56.0202 197.819C51.2711 198.738 47.0832 195.221 43.7769 191.691C41.4519 189.208 38.2029 187.974 34.0456 187.974C23.6876 187.974 17.6595 196.092 17.6595 210.045C17.6595 223.829 23.9423 232.201 34.4701 232.201C39.1397 232.201 43.13 230.256 45.5922 226.874C48.0836 223.37 51.5976 220.115 55.8499 220.746L56.6665 220.867C61.598 221.599 65.0933 226.473 63.0453 231.019C61.9239 233.508 60.555 235.603 58.752 237.698C53.4881 243.702 45.2526 246.915 34.9795 246.915C24.6215 246.915 15.8766 243.702 9.84859 237.613C3.56587 231.271 0 221.377 0 210.045C0 198.545 3.56587 188.82 10.2731 182.224C16.1313 176.558 24.7064 173.429 34.6399 173.429C45.5922 173.429 54.1673 177.15 59.6859 184.507C60.5014 185.548 61.2022 186.558 61.8135 187.597Z" fill="#FF4E59"/>
<path d="M137.833 184.08C137.755 179.265 141.523 174.951 146.339 174.951C151.131 174.951 154.857 179.221 154.778 184.013C154.76 185.056 154.753 186.197 154.753 187.467V232.793C154.753 234.093 154.762 235.246 154.783 236.304C154.88 241.103 151.198 245.309 146.397 245.309C141.532 245.309 137.755 240.985 137.833 236.121C137.85 235.11 137.857 234.011 137.857 232.793V229.388C137.857 222.208 132.037 216.388 124.857 216.388H122.245C115.066 216.388 109.245 222.208 109.245 229.388V232.793C109.245 234.062 109.254 235.21 109.274 236.271C109.366 241.071 105.657 245.309 100.857 245.309C96.015 245.309 92.249 240.996 92.3262 236.155C92.3424 235.136 92.3498 234.025 92.3498 232.793V187.467C92.3498 186.23 92.3422 185.119 92.3253 184.101C92.245 179.252 96.0013 174.951 100.851 174.951C105.664 174.951 109.375 179.184 109.277 183.995C109.255 185.065 109.245 186.21 109.245 187.467V188.504C109.245 195.684 115.066 201.504 122.245 201.504H124.857C132.037 201.504 137.857 195.684 137.857 188.504V187.467C137.857 186.236 137.85 185.115 137.833 184.08Z" fill="#FF4E59"/>
<path d="M184.531 184.212C184.462 179.298 188.25 174.951 193.165 174.951C198.111 174.951 201.958 179.359 201.89 184.305C201.877 185.26 201.871 186.305 201.871 187.467V232.793C201.871 233.983 201.878 235.061 201.894 236.052C201.971 240.953 198.163 245.309 193.262 245.309C188.326 245.309 184.454 240.886 184.529 235.951C184.544 234.973 184.551 233.925 184.551 232.793V187.467C184.551 186.251 184.545 185.178 184.531 184.212Z" fill="#FF4E59"/>
<path d="M276.733 189.919C271.434 189.919 267.139 194.214 267.139 199.513V232.54C267.139 233.747 267.149 234.879 267.17 235.955C267.27 240.93 263.413 245.309 258.437 245.309C253.46 245.309 249.611 240.931 249.705 235.956C249.725 234.896 249.734 233.767 249.734 232.54V199.937C249.734 194.404 245.249 189.919 239.716 189.919C237.664 189.919 236.187 189.931 234.805 189.975C230.54 190.111 226.896 186.849 226.896 182.582C226.896 178.209 230.728 174.763 235.098 174.888C236.512 174.929 238.007 174.951 239.546 174.951H276.733C278.711 174.951 280.406 174.932 281.932 174.892C286.238 174.777 289.978 178.118 289.978 182.425C289.978 186.739 286.226 190.086 281.914 189.975C280.407 189.937 278.717 189.919 276.733 189.919Z" fill="#FF4E59"/>
<path d="M390.49 218.164C383.624 218.164 378.059 223.729 378.059 230.595C378.059 232.808 378.065 234.641 378.087 236.215C378.155 241.004 374.4 245.309 369.611 245.309C364.822 245.309 361.1 241.006 361.202 236.218C361.234 234.68 361.248 232.922 361.248 230.848V187.044C361.248 180.591 366.512 174.951 372.964 174.951H397.501C400.025 174.951 402.016 174.941 403.7 174.909C407.991 174.827 411.764 178.156 411.764 182.448C411.764 186.701 408.059 190.008 403.807 189.899C402.075 189.855 400.061 189.834 397.586 189.834H384.993C381.163 189.834 378.059 192.939 378.059 196.769C378.059 200.598 381.163 203.703 384.993 203.703H394.02C396.296 203.703 398.171 203.683 399.803 203.64C403.971 203.529 407.604 206.763 407.604 210.933C407.604 215.103 403.972 218.342 399.803 218.229C398.151 218.184 396.272 218.164 394.02 218.164H390.49Z" fill="#FF4E59"/>
<path d="M484.03 184.062C483.951 179.223 487.679 174.951 492.518 174.951C497.377 174.951 501.144 179.261 501.063 184.119C501.045 185.199 501.037 186.386 501.037 187.72V216.811C501.037 236.091 489.405 247 468.944 247C458.416 247 449.841 244.04 444.747 238.713C439.823 233.47 437.275 226.113 437.275 216.641V187.72C437.275 186.402 437.267 185.191 437.247 184.069C437.165 179.267 440.943 174.951 445.746 174.951C450.563 174.951 454.354 179.291 454.28 184.107C454.263 185.199 454.256 186.395 454.256 187.72V216.811C454.256 227.466 459.095 232.54 469.029 232.54C479.217 232.54 484.056 227.466 484.056 216.811V187.72C484.056 186.342 484.048 185.139 484.03 184.062Z" fill="#FF4E59"/>
<path d="M554.331 185.522L570.462 209.538C571.963 211.755 576.078 210.514 576.067 207.837C576.066 207.589 576.066 207.338 576.066 207.086V187.805C576.066 186.395 576.055 185.125 576.031 183.952C575.931 179.168 579.631 174.951 584.416 174.951C589.209 174.951 592.926 179.185 592.827 183.978C592.802 185.153 592.791 186.417 592.791 187.805V232.709C592.791 232.949 592.792 233.187 592.793 233.422C592.823 239.76 587.895 245.309 581.557 245.309C577.477 245.309 573.783 242.942 571.646 239.466C570.736 237.987 569.702 236.386 568.51 234.569L552.803 210.976C551.379 208.875 547.274 210.088 547.283 212.626C547.284 212.81 547.284 212.993 547.284 213.174V232.117C547.284 233.668 547.296 235.07 547.323 236.36C547.423 241.102 543.728 245.309 538.986 245.309C534.198 245.309 530.437 241.019 530.525 236.233C530.548 234.966 530.559 233.576 530.559 232.032V187.551C530.559 187.149 530.557 186.754 530.555 186.366C530.518 180.302 535.259 174.951 541.323 174.951C545.519 174.951 549.322 177.557 551.505 181.141C552.299 182.445 553.236 183.9 554.331 185.522Z" fill="#FF4E59"/>
<path d="M622.679 233.216V187.128C622.679 187.06 622.679 186.993 622.679 186.925C622.692 180.785 628.34 174.951 634.48 174.951H652.225C662.667 174.951 671.073 177.826 676.761 183.323C682.959 189.412 686.1 198.291 686.1 209.538C686.1 221.123 682.704 230.425 676.252 236.852C670.563 242.434 662.498 245.309 652.394 245.309H634.48C628.044 245.309 622.679 239.652 622.679 233.216ZM639.489 219.133C639.489 225.416 644.583 230.51 650.866 230.51C656.385 230.51 660.29 229.072 663.347 226.028C666.828 222.476 668.695 216.811 668.695 209.792C668.695 202.604 667.082 197.361 663.771 194.063C660.8 191.103 656.724 189.75 650.611 189.75C644.469 189.75 639.489 194.729 639.489 200.872V219.133Z" fill="#FF4E59"/>
<path d="M712.203 231.948C710.505 227.888 714.022 223.73 718.403 223.31L721.294 223.034C725.011 222.677 727.956 225.666 730.202 228.65C732.24 231.186 735.806 232.624 740.136 232.624C746.673 232.624 750.578 229.749 750.578 225.013C750.578 222.392 749.22 220.109 747.013 219.094C745.23 218.248 743.107 217.656 734.277 215.627C726.466 213.935 723.75 212.921 720.608 210.722C715.259 207.001 712.373 201.335 712.373 194.485C712.373 181.463 722.901 173.26 739.626 173.26C750.409 173.26 758.644 176.558 763.229 182.9C763.472 183.219 763.7 183.535 763.916 183.852C766.891 188.216 762.858 193.547 757.607 194.114C753.019 194.61 749.307 190.481 745.193 188.392C743.605 187.585 741.553 187.213 738.947 187.213C733.768 187.213 729.947 190.004 729.947 193.894C729.947 196.261 731.221 198.037 733.938 199.306C735.636 200.067 735.636 200.067 745.654 202.096C752.107 203.449 756.182 204.887 759.408 206.916C765.521 210.722 768.578 216.388 768.578 224.168C768.578 230.51 766.54 235.922 762.635 239.728C757.71 244.463 750.239 246.915 740.305 246.915C733.089 246.915 725.957 245.393 721.372 242.772C717.127 240.404 713.986 236.768 712.203 231.948Z" fill="#FF4E59"/>
<circle cx="754.526" cy="14.1274" r="13.1274" stroke="#FF4E59" stroke-width="2"/>
<path d="M754.732 15.3095H752.024V20.2319H749.461V7.67896H755.618C756.498 7.69599 757.174 7.80386 757.645 8.00257C758.122 8.20128 758.525 8.49367 758.854 8.87974C759.127 9.19768 759.343 9.54968 759.502 9.93575C759.661 10.3218 759.74 10.7618 759.74 11.2558C759.74 11.8519 759.59 12.4395 759.289 13.0186C758.988 13.592 758.491 13.998 757.798 14.2364C758.377 14.4692 758.786 14.8013 759.025 15.2328C759.269 15.6586 759.391 16.3116 759.391 17.1916V18.0347C759.391 18.6081 759.414 18.997 759.459 19.2014C759.527 19.525 759.686 19.7635 759.936 19.9168V20.2319H757.049C756.969 19.9537 756.913 19.7294 756.879 19.5591C756.81 19.2071 756.774 18.8466 756.768 18.4775L756.751 17.3108C756.739 16.5103 756.592 15.9766 756.308 15.7097C756.03 15.4429 755.505 15.3095 754.732 15.3095ZM756.325 13.0271C756.847 12.7887 757.108 12.3175 757.108 11.6134C757.108 10.8527 756.856 10.3417 756.351 10.0805C756.067 9.93291 755.641 9.85911 755.073 9.85911H752.024V13.2315H754.996C755.587 13.2315 756.03 13.1634 756.325 13.0271Z" fill="#FF4E59"/>
</svg>
