<svg width="1179" height="497" viewBox="0 0 1179 497" fill="none" xmlns="http://www.w3.org/2000/svg">
<path d="M92.3201 383.76C79.0401 383.76 66.8001 381.68 55.6001 377.52C44.5601 373.2 34.8801 367.12 26.5601 359.28C18.4001 351.44 12.0001 342.24 7.36014 331.68C2.88014 321.12 0.640137 309.52 0.640137 296.88C0.640137 284.24 2.88014 272.64 7.36014 262.08C12.0001 251.52 18.4801 242.32 26.8001 234.48C35.1201 226.64 44.8801 220.64 56.0801 216.48C67.2801 212.16 79.6001 210 93.0401 210C107.92 210 121.28 212.48 133.12 217.44C143.25 221.627 152.011 227.41 159.405 234.789C161.696 237.077 161.472 240.783 159.093 242.979L142.746 258.068C140.336 260.293 136.605 260.144 134.154 257.964C129.263 253.615 124.039 250.267 118.48 247.92C111.28 244.72 103.44 243.12 94.9601 243.12C86.8001 243.12 79.3601 244.4 72.6401 246.96C65.9201 249.52 60.0801 253.2 55.1201 258C50.3201 262.8 46.5601 268.48 43.8401 275.04C41.2801 281.6 40.0001 288.88 40.0001 296.88C40.0001 304.72 41.2801 311.92 43.8401 318.48C46.5601 325.04 50.3201 330.8 55.1201 335.76C60.0801 340.56 65.8401 344.24 72.4001 346.8C79.1201 349.36 86.4801 350.64 94.4801 350.64C102.16 350.64 109.6 349.44 116.8 347.04C122.425 345.083 127.91 342.145 133.255 338.226C136.011 336.205 139.924 336.563 142.036 339.25L160.24 362.4C151.12 369.28 140.48 374.56 128.32 378.24C116.32 381.92 104.32 383.76 92.3201 383.76ZM129.877 358.092C126.919 357.672 124.72 355.139 124.72 352.151V300.24C124.72 296.926 127.406 294.24 130.72 294.24H154.24C157.554 294.24 160.24 296.926 160.24 300.24V362.4L129.877 358.092Z" fill="black"/>
<path d="M202.356 380.88C199.043 380.88 196.356 378.194 196.356 374.88V218.88C196.356 215.566 199.043 212.88 202.356 212.88H269.076C284.116 212.88 297.076 215.36 307.956 220.32C318.836 225.12 327.236 232.08 333.156 241.2C339.076 250.32 342.036 261.2 342.036 273.84C342.036 286.32 339.076 297.12 333.156 306.24C327.236 315.2 318.836 322.08 307.956 326.88C297.076 331.68 284.116 334.08 269.076 334.08H230.211C225.716 334.08 223.482 328.631 226.682 325.476C229.858 322.344 235.236 324.594 235.236 329.054V374.88C235.236 378.194 232.55 380.88 229.236 380.88H202.356ZM306.309 380.88C304.335 380.88 302.488 379.909 301.368 378.284L267.636 329.324C264.893 325.344 267.743 319.92 272.576 319.92H299.544C301.507 319.92 303.345 320.88 304.467 322.49L338.585 371.45C341.357 375.427 338.51 380.88 333.662 380.88H306.309ZM235.236 308.317C235.236 313.015 229.497 315.302 226.266 311.892C223.128 308.579 225.476 303.12 230.039 303.12H266.916C278.916 303.12 287.876 300.56 293.796 295.44C299.716 290.16 302.676 282.96 302.676 273.84C302.676 264.56 299.716 257.36 293.796 252.24C287.876 247.12 278.916 244.56 266.916 244.56H230.007C225.431 244.56 223.062 239.1 226.187 235.758C229.427 232.293 235.236 234.586 235.236 239.33V308.317Z" fill="black"/>
<path d="M454.441 383.76C441.161 383.76 428.841 381.6 417.481 377.28C406.281 372.96 396.521 366.88 388.201 359.04C380.041 351.2 373.641 342 369.001 331.44C364.521 320.88 362.281 309.36 362.281 296.88C362.281 284.4 364.521 272.88 369.001 262.32C373.641 251.76 380.121 242.56 388.441 234.72C396.761 226.88 406.521 220.8 417.721 216.48C428.921 212.16 441.081 210 454.201 210C467.481 210 479.641 212.16 490.681 216.48C501.881 220.8 511.561 226.88 519.721 234.72C528.041 242.56 534.521 251.76 539.161 262.32C543.801 272.72 546.121 284.24 546.121 296.88C546.121 309.36 543.801 320.96 539.161 331.68C534.521 342.24 528.041 351.44 519.721 359.28C511.561 366.96 501.881 372.96 490.681 377.28C479.641 381.6 467.561 383.76 454.441 383.76ZM454.201 350.64C461.721 350.64 468.601 349.36 474.841 346.8C481.241 344.24 486.841 340.56 491.641 335.76C496.441 330.96 500.121 325.28 502.681 318.72C505.401 312.16 506.761 304.88 506.761 296.88C506.761 288.88 505.401 281.6 502.681 275.04C500.121 268.48 496.441 262.8 491.641 258C487.001 253.2 481.481 249.52 475.081 246.96C468.681 244.4 461.721 243.12 454.201 243.12C446.681 243.12 439.721 244.4 433.321 246.96C427.081 249.52 421.561 253.2 416.761 258C411.961 262.8 408.201 268.48 405.481 275.04C402.921 281.6 401.641 288.88 401.641 296.88C401.641 304.72 402.921 312 405.481 318.72C408.201 325.28 411.881 330.96 416.521 335.76C421.321 340.56 426.921 344.24 433.321 346.8C439.721 349.36 446.681 350.64 454.201 350.64Z" fill="black"/>
<path d="M649.981 383.76C626.141 383.76 607.501 377.12 594.061 363.84C580.621 350.56 573.901 331.6 573.901 306.96V218.88C573.901 215.566 576.587 212.88 579.901 212.88H606.781C610.094 212.88 612.781 215.566 612.781 218.88V305.52C612.781 321.52 616.061 333.04 622.621 340.08C629.181 347.12 638.381 350.64 650.221 350.64C662.061 350.64 671.261 347.12 677.821 340.08C684.381 333.04 687.661 321.52 687.661 305.52V218.88C687.661 215.566 690.347 212.88 693.661 212.88H720.061C723.374 212.88 726.061 215.566 726.061 218.88V306.96C726.061 331.6 719.341 350.56 705.901 363.84C692.461 377.12 673.821 383.76 649.981 383.76Z" fill="black"/>
<path d="M770.481 380.88C767.168 380.88 764.481 378.194 764.481 374.88V218.88C764.481 215.566 767.168 212.88 770.481 212.88H837.201C852.241 212.88 865.201 215.36 876.081 220.32C886.961 225.12 895.361 232.08 901.281 241.2C907.201 250.32 910.161 261.2 910.161 273.84C910.161 286.32 907.201 297.12 901.281 306.24C895.361 315.36 886.961 322.4 876.081 327.36C865.201 332.16 852.241 334.56 837.201 334.56H798.265C793.742 334.56 791.461 329.106 794.637 325.885C797.837 322.641 803.361 324.907 803.361 329.464V374.88C803.361 378.194 800.675 380.88 797.361 380.88H770.481ZM803.361 308.11C803.361 312.854 797.552 315.147 794.312 311.682C791.187 308.34 793.556 302.88 798.132 302.88H835.041C847.041 302.88 856.001 300.32 861.921 295.2C867.841 290.08 870.801 282.96 870.801 273.84C870.801 264.56 867.841 257.36 861.921 252.24C856.001 247.12 847.041 244.56 835.041 244.56H798.132C793.556 244.56 791.187 239.1 794.312 235.758C797.552 232.293 803.361 234.586 803.361 239.33V308.11Z" fill="black"/>
<path d="M69.4 173.76C55.96 173.76 43.08 172 30.76 168.48C20.4556 165.402 11.8302 161.597 4.88372 157.064C2.5501 155.541 1.8098 152.524 2.95503 149.983L11.2006 131.693C12.7539 128.248 17.0679 127.086 20.3254 129.003C26.0825 132.39 32.5207 135.309 39.64 137.76C49.56 140.96 59.56 142.56 69.64 142.56C77.32 142.56 83.48 141.84 88.12 140.4C92.92 138.8 96.44 136.64 98.68 133.92C100.92 131.2 102.04 128.08 102.04 124.56C102.04 120.08 100.28 116.56 96.76 114C93.24 111.28 88.6 109.12 82.84 107.52C77.08 105.76 70.68 104.16 63.64 102.72C56.76 101.12 49.8 99.2 42.76 96.96C35.88 94.72 29.56 91.84 23.8 88.32C18.04 84.8 13.32 80.16 9.64 74.4C6.12 68.64 4.36 61.28 4.36 52.32C4.36 42.72 6.92 34 12.04 26.16C17.32 18.16 25.16 11.84 35.56 7.19999C46.12 2.4 59.32 0 75.16 0C85.72 0 96.12 1.28 106.36 3.83999C114.767 5.81043 122.366 8.64367 129.155 12.3397C131.705 13.7282 132.684 16.8375 131.591 19.5277L124.062 38.0482C122.695 41.4109 118.684 42.7841 115.428 41.1799C109.605 38.3114 103.783 36.1048 97.96 34.56C90.12 32.32 82.44 31.2 74.92 31.2C67.4 31.2 61.24 32.08 56.44 33.84C51.64 35.6 48.2 37.92 46.12 40.8C44.04 43.52 43 46.72 43 50.4C43 54.72 44.76 58.24 48.28 60.96C51.8 63.52 56.44 65.6 62.2 67.2C67.96 68.8 74.28 70.4 81.16 72C88.2 73.6 95.16 75.44 102.04 77.52C109.08 79.6 115.48 82.4 121.24 85.92C127 89.44 131.64 94.08 135.16 99.84C138.84 105.6 140.68 112.88 140.68 121.68C140.68 131.12 138.04 139.76 132.76 147.6C127.48 155.44 119.56 161.76 109 166.56C98.6 171.36 85.4 173.76 69.4 173.76Z" fill="black"/>
<path d="M249.087 173.76C225.247 173.76 206.607 167.12 193.167 153.84C179.727 140.56 173.007 121.6 173.007 96.96V8.87999C173.007 5.56628 175.693 2.87999 179.007 2.87999H205.887C209.201 2.87999 211.887 5.56628 211.887 8.87999V95.52C211.887 111.52 215.167 123.04 221.727 130.08C228.287 137.12 237.487 140.64 249.327 140.64C261.167 140.64 270.367 137.12 276.927 130.08C283.487 123.04 286.767 111.52 286.767 95.52V8.88C286.767 5.56629 289.453 2.87999 292.767 2.87999H319.167C322.481 2.87999 325.167 5.56628 325.167 8.87999V96.96C325.167 121.6 318.447 140.56 305.007 153.84C291.567 167.12 272.927 173.76 249.087 173.76Z" fill="black"/>
<path d="M376.788 170.88C373.474 170.88 370.788 168.194 370.788 164.88V8.87999C370.788 5.56628 373.474 2.87999 376.788 2.87999H443.508C458.548 2.87999 471.508 5.35999 482.388 10.32C493.268 15.12 501.667 22.08 507.587 31.2C513.508 40.32 516.468 51.2 516.468 63.84C516.468 76.32 513.508 87.12 507.587 96.24C501.667 105.2 493.268 112.08 482.388 116.88C471.508 121.68 458.548 124.08 443.508 124.08H404.642C400.147 124.08 397.913 118.631 401.113 115.476C404.289 112.344 409.667 114.594 409.667 119.054V164.88C409.667 168.194 406.981 170.88 403.667 170.88H376.788ZM480.74 170.88C478.766 170.88 476.919 169.909 475.799 168.284L442.067 119.324C439.324 115.344 442.174 109.92 447.008 109.92H473.975C475.938 109.92 477.776 110.88 478.898 112.49L513.016 161.45C515.788 165.427 512.942 170.88 508.093 170.88H480.74ZM409.667 98.3172C409.667 103.015 403.929 105.302 400.697 101.892C397.559 98.5792 399.907 93.12 404.47 93.12H441.348C453.348 93.12 462.307 90.56 468.228 85.44C474.148 80.16 477.108 72.96 477.108 63.84C477.108 54.56 474.148 47.36 468.228 42.24C462.307 37.12 453.348 34.56 441.348 34.56H404.438C399.863 34.56 397.493 29.1001 400.618 25.7583C403.858 22.2929 409.667 24.5858 409.667 29.3302V98.3172Z" fill="black"/>
<path d="M541.635 170.88C537.29 170.88 534.386 166.406 536.155 162.437L605.686 6.43735C606.651 4.27371 608.798 2.87999 611.167 2.87999H641.782C644.148 2.87999 646.294 4.2707 647.26 6.43082L717.014 162.431C718.789 166.4 715.884 170.88 711.536 170.88H684.001C681.574 170.88 679.386 169.418 678.458 167.176L621.489 29.65C620.09 26.2738 622.572 22.56 626.226 22.56C629.884 22.56 632.365 26.2795 630.961 29.6566L573.769 167.184C572.838 169.422 570.653 170.88 568.229 170.88H541.635ZM578.285 134.88C574.153 134.88 571.258 130.801 572.622 126.9L578.747 109.38C579.588 106.972 581.86 105.36 584.41 105.36H662.326C664.86 105.36 667.122 106.953 667.975 109.339L674.243 126.859C675.641 130.767 672.744 134.88 668.593 134.88H578.285Z" fill="black"/>
<path d="M751.422 170.88C748.108 170.88 745.422 168.194 745.422 164.88V8.87999C745.422 5.56628 748.108 2.87999 751.422 2.87999H827.502C848.622 2.87999 864.462 6.87999 875.022 14.88C885.742 22.88 891.102 33.44 891.102 46.56C891.102 55.36 888.942 63.04 884.622 69.6C880.302 76 874.382 80.96 866.862 84.48C861.38 87.0458 855.304 88.6765 848.632 89.372C845.057 89.7447 842.669 86.0321 844.181 82.7713C844.986 81.0327 846.729 79.9076 848.644 79.9732C857.928 80.2909 866.241 82.0332 873.582 85.2C881.742 88.56 888.062 93.6 892.542 100.32C897.182 107.04 899.502 115.28 899.502 125.04C899.502 139.44 893.822 150.72 882.462 158.88C871.102 166.88 854.382 170.88 832.302 170.88H751.422ZM784.062 135.6C784.062 138.914 786.748 141.6 790.062 141.6H829.422C839.502 141.6 847.102 140 852.222 136.8C857.502 133.44 860.142 128.16 860.142 120.96C860.142 113.92 857.502 108.72 852.222 105.36C847.102 101.84 839.502 100.08 829.422 100.08H787.182C783.868 100.08 781.182 97.3937 781.182 94.08V77.76C781.182 74.4463 783.868 71.76 787.182 71.76H822.702C832.142 71.76 839.342 70.16 844.302 66.96C849.422 63.6 851.982 58.56 851.982 51.84C851.982 45.28 849.422 40.4 844.302 37.2C839.342 33.84 832.142 32.16 822.702 32.16H790.062C786.748 32.16 784.062 34.8463 784.062 38.16V135.6Z" fill="black"/>
<path d="M1051.34 8.87999C1051.34 5.56628 1054.02 2.87999 1057.34 2.87999H1084.22C1087.53 2.87999 1090.22 5.56628 1090.22 8.87999V164.88C1090.22 168.194 1087.53 170.88 1084.22 170.88H1057.34C1054.02 170.88 1051.34 168.194 1051.34 164.88V8.87999ZM975.018 164.88C975.018 168.194 972.331 170.88 969.018 170.88H942.138C938.824 170.88 936.138 168.194 936.138 164.88V8.87999C936.138 5.56628 938.824 2.87999 942.138 2.87999H969.018C972.331 2.87999 975.018 5.56628 975.018 8.87999V164.88ZM1054.22 96C1054.22 99.3137 1051.53 102 1048.22 102H978.138C974.824 102 972.138 99.3137 972.138 96V75.12C972.138 71.8063 974.824 69.12 978.138 69.12H1048.22C1051.53 69.12 1054.22 71.8063 1054.22 75.12V96Z" fill="black"/>
<path d="M1143.17 170.88C1139.85 170.88 1137.17 168.194 1137.17 164.88V8.87999C1137.17 5.56628 1139.85 2.87999 1143.17 2.87999H1170.05C1173.36 2.87999 1176.05 5.56628 1176.05 8.87999V164.88C1176.05 168.194 1173.36 170.88 1170.05 170.88H1143.17Z" fill="black"/>
<path d="M971.499 380.88C966.721 380.88 962.587 377.547 961.56 372.867L938.444 267.484C937.318 262.743 942.207 258.829 946.568 260.98L997.135 285.929C1001.96 288.309 1007.8 286.516 1010.46 281.835L1057.73 198.88V380.88H971.499Z" fill="#FFA600"/>
<path d="M1144.84 380.88C1149.61 380.88 1153.74 377.557 1154.78 372.886L1178.11 267.484C1179.25 262.737 1174.37 258.804 1169.99 260.943L1118.75 285.993C1113.94 288.342 1108.15 286.561 1105.48 281.917L1057.73 198.88V380.88H1144.84Z" fill="#FFA600"/>
<path d="M28.6621 456.391C27.4772 456.391 26.4518 456.539 25.5859 456.835C24.0592 457.382 22.9085 458.396 22.1338 459.877L13.3838 459.467L16.8701 432.089H44.1797V440.36H23.9111L22.1338 451.195C23.6377 450.215 24.8112 449.566 25.6543 449.247C27.0671 448.723 28.7874 448.461 30.8154 448.461C34.917 448.461 38.4945 449.84 41.5479 452.597C44.6012 455.354 46.1279 459.364 46.1279 464.628C46.1279 469.208 44.6582 473.298 41.7188 476.898C38.7793 480.499 34.3815 482.299 28.5254 482.299C23.8086 482.299 19.9349 481.034 16.9043 478.505C13.8737 475.976 12.1875 472.387 11.8457 467.738H21.5527C21.9401 469.857 22.6807 471.498 23.7744 472.66C24.8682 473.799 26.4632 474.369 28.5596 474.369C30.9749 474.369 32.8092 473.526 34.0625 471.84C35.3385 470.131 35.9766 467.989 35.9766 465.414C35.9766 462.885 35.3841 460.754 34.1992 459.022C33.0143 457.268 31.1686 456.391 28.6621 456.391ZM96.2422 482.23C89.9303 482.23 85.4984 480.02 82.9463 475.6C80.417 471.179 79.1523 464.879 79.1523 456.698C79.1523 448.518 80.417 442.206 82.9463 437.763C85.4984 433.319 89.9303 431.098 96.2422 431.098C102.554 431.098 106.986 433.319 109.538 437.763C112.067 442.206 113.332 448.518 113.332 456.698C113.332 464.879 112.056 471.179 109.504 475.6C106.975 480.02 102.554 482.23 96.2422 482.23ZM101.95 469.755C102.839 466.747 103.283 462.395 103.283 456.698C103.283 450.728 102.827 446.308 101.916 443.437C101.027 440.565 99.1361 439.13 96.2422 439.13C93.3483 439.13 91.4342 440.565 90.5 443.437C89.5658 446.308 89.0986 450.728 89.0986 456.698C89.0986 462.395 89.5658 466.758 90.5 469.789C91.4342 472.797 93.3483 474.301 96.2422 474.301C99.1361 474.301 101.039 472.785 101.95 469.755ZM236.188 430.619L219.337 462.064V481H208.81V462.064L191.378 430.619H203.785L214.244 452.562L224.259 430.619H236.188ZM305.271 458.988H280.799V471.942H308.689V481H270.511V430.619H307.459V439.54H280.799V450.238H305.271V458.988ZM374.39 470.644H355.83L352.344 481H341.338L359.316 430.619H371.211L389.053 481H377.637L374.39 470.644ZM371.45 461.962L365.161 442.138L358.667 461.962H371.45ZM444.875 461.244H434.006V481H423.718V430.619H448.43C451.962 430.688 454.673 431.12 456.564 431.918C458.479 432.715 460.096 433.889 461.418 435.438C462.512 436.715 463.378 438.127 464.016 439.677C464.654 441.226 464.973 442.992 464.973 444.975C464.973 447.367 464.369 449.726 463.161 452.05C461.953 454.351 459.96 455.98 457.18 456.938C459.504 457.872 461.145 459.205 462.102 460.937C463.081 462.646 463.571 465.266 463.571 468.798V472.182C463.571 474.483 463.662 476.044 463.845 476.864C464.118 478.163 464.756 479.12 465.759 479.735V481H454.172C453.853 479.883 453.625 478.983 453.488 478.3C453.215 476.887 453.067 475.44 453.044 473.959L452.976 469.276C452.93 466.063 452.338 463.922 451.198 462.851C450.082 461.78 447.974 461.244 444.875 461.244ZM451.267 452.084C453.363 451.127 454.411 449.236 454.411 446.41C454.411 443.357 453.397 441.306 451.369 440.258C450.23 439.665 448.521 439.369 446.242 439.369H434.006V452.904H445.935C448.304 452.904 450.082 452.631 451.267 452.084ZM520.351 473.72C522.834 473.72 524.851 473.446 526.4 472.899C529.34 471.851 530.81 469.903 530.81 467.055C530.81 465.391 530.08 464.104 528.622 463.192C527.164 462.304 524.874 461.518 521.752 460.834L516.42 459.638C511.179 458.453 507.556 457.165 505.551 455.775C502.156 453.451 500.458 449.817 500.458 444.872C500.458 440.36 502.099 436.612 505.38 433.627C508.661 430.642 513.48 429.149 519.838 429.149C525.147 429.149 529.67 430.562 533.407 433.388C537.167 436.19 539.138 440.269 539.32 445.624H529.203C529.021 442.593 527.699 440.44 525.238 439.164C523.598 438.321 521.558 437.899 519.12 437.899C516.409 437.899 514.244 438.446 512.626 439.54C511.008 440.634 510.199 442.16 510.199 444.12C510.199 445.92 510.997 447.265 512.592 448.153C513.617 448.746 515.805 449.441 519.154 450.238L527.836 452.323C531.641 453.235 534.512 454.454 536.449 455.98C539.457 458.35 540.961 461.78 540.961 466.269C540.961 470.871 539.195 474.7 535.663 477.753C532.154 480.784 527.187 482.299 520.761 482.299C514.198 482.299 509.037 480.806 505.277 477.821C501.518 474.813 499.638 470.689 499.638 465.448H509.687C510.006 467.75 510.632 469.47 511.566 470.609C513.275 472.683 516.203 473.72 520.351 473.72ZM646.521 482.401C639.321 482.401 633.818 480.442 630.013 476.522C624.909 471.715 622.356 464.787 622.356 455.741C622.356 446.513 624.909 439.586 630.013 434.96C633.818 431.041 639.321 429.081 646.521 429.081C653.722 429.081 659.225 431.041 663.03 434.96C668.112 439.586 670.652 446.513 670.652 455.741C670.652 464.787 668.112 471.715 663.03 476.522C659.225 480.442 653.722 482.401 646.521 482.401ZM656.468 468.866C658.906 465.79 660.125 461.415 660.125 455.741C660.125 450.09 658.895 445.727 656.434 442.65C653.995 439.551 650.691 438.002 646.521 438.002C642.352 438.002 639.025 439.54 636.541 442.616C634.057 445.692 632.815 450.067 632.815 455.741C632.815 461.415 634.057 465.79 636.541 468.866C639.025 471.942 642.352 473.48 646.521 473.48C650.691 473.48 654.007 471.942 656.468 468.866ZM742.437 439.54H717.178V451.127H739.292V459.877H717.178V481H706.719V430.688H742.437V439.54ZM861.601 430.619V439.54H846.527V481H835.932V439.54H820.79V430.619H861.601ZM917.184 461.244H906.314V481H896.026V430.619H920.738C924.27 430.688 926.982 431.12 928.873 431.918C930.787 432.715 932.405 433.889 933.727 435.438C934.82 436.715 935.686 438.127 936.324 439.677C936.962 441.226 937.281 442.992 937.281 444.975C937.281 447.367 936.677 449.726 935.47 452.05C934.262 454.351 932.268 455.98 929.488 456.938C931.812 457.872 933.453 459.205 934.41 460.937C935.39 462.646 935.88 465.266 935.88 468.798V472.182C935.88 474.483 935.971 476.044 936.153 476.864C936.427 478.163 937.065 479.12 938.067 479.735V481H926.48C926.161 479.883 925.934 478.983 925.797 478.3C925.523 476.887 925.375 475.44 925.353 473.959L925.284 469.276C925.239 466.063 924.646 463.922 923.507 462.851C922.39 461.78 920.283 461.244 917.184 461.244ZM923.575 452.084C925.672 451.127 926.72 449.236 926.72 446.41C926.72 443.357 925.706 441.306 923.678 440.258C922.538 439.665 920.829 439.369 918.551 439.369H906.314V452.904H918.243C920.613 452.904 922.39 452.631 923.575 452.084ZM1004.18 461.586V430.619H1014.88V461.586C1014.88 466.941 1014.04 471.111 1012.38 474.096C1009.28 479.564 1003.37 482.299 994.642 482.299C985.914 482.299 979.99 479.564 976.868 474.096C975.205 471.111 974.373 466.941 974.373 461.586V430.619H985.071V461.586C985.071 465.049 985.481 467.579 986.302 469.174C987.578 471.999 990.358 473.412 994.642 473.412C998.903 473.412 1001.67 471.999 1002.95 469.174C1003.77 467.579 1004.18 465.049 1004.18 461.586ZM1071.25 473.72C1073.73 473.72 1075.75 473.446 1077.29 472.899C1080.23 471.851 1081.7 469.903 1081.7 467.055C1081.7 465.391 1080.97 464.104 1079.52 463.192C1078.06 462.304 1075.77 461.518 1072.65 460.834L1067.31 459.638C1062.07 458.453 1058.45 457.165 1056.45 455.775C1053.05 453.451 1051.35 449.817 1051.35 444.872C1051.35 440.36 1052.99 436.612 1056.27 433.627C1059.56 430.642 1064.38 429.149 1070.73 429.149C1076.04 429.149 1080.56 430.562 1084.3 433.388C1088.06 436.19 1090.03 440.269 1090.21 445.624H1080.1C1079.92 442.593 1078.59 440.44 1076.13 439.164C1074.49 438.321 1072.45 437.899 1070.01 437.899C1067.3 437.899 1065.14 438.446 1063.52 439.54C1061.9 440.634 1061.09 442.16 1061.09 444.12C1061.09 445.92 1061.89 447.265 1063.49 448.153C1064.51 448.746 1066.7 449.441 1070.05 450.238L1078.73 452.323C1082.54 453.235 1085.41 454.454 1087.34 455.98C1090.35 458.35 1091.86 461.78 1091.86 466.269C1091.86 470.871 1090.09 474.7 1086.56 477.753C1083.05 480.784 1078.08 482.299 1071.66 482.299C1065.09 482.299 1059.93 480.806 1056.17 477.821C1052.41 474.813 1050.53 470.689 1050.53 465.448H1060.58C1060.9 467.75 1061.53 469.47 1062.46 470.609C1064.17 472.683 1067.1 473.72 1071.25 473.72ZM1164.25 430.619V439.54H1149.18V481H1138.59V439.54H1123.44V430.619H1164.25Z" fill="black"/>
</svg>
