<svg width="1010" height="114" viewBox="0 0 1010 114" fill="none" xmlns="http://www.w3.org/2000/svg">
<path d="M0 103.064V52.8022H19.7101C25.9796 52.8022 30.5099 53.9406 33.3011 56.2175C36.0923 58.4943 37.4879 61.5658 37.4879 65.4321C37.4879 67.9237 36.8867 69.9427 35.6843 71.4893C34.482 73.0358 32.657 74.1742 30.2093 74.9045V76.451C33.4729 77.1813 35.942 78.47 37.6167 80.3173C39.3344 82.1645 40.1932 84.8494 40.1932 88.372C40.1932 92.7968 38.7332 96.3623 35.8132 99.0687C32.9361 101.732 28.1696 103.064 21.5137 103.064H0ZM10.3059 95.3313H20.0966C23.3601 95.3313 25.7219 94.6869 27.1819 93.3982C28.6419 92.0665 29.372 90.2622 29.372 87.9854C29.372 85.4508 28.5561 83.6036 26.9243 82.4437C25.2925 81.2409 23.0166 80.6395 20.0966 80.6395H10.3059V95.3313ZM10.3059 73.0358H18.9372C21.3848 73.0358 23.3172 72.5418 24.7343 71.5537C26.1943 70.5227 26.9243 68.9332 26.9243 66.7853C26.9243 62.6183 24.2619 60.5348 18.9372 60.5348H10.3059V73.0358Z" fill="black"/>
<path d="M67.8955 104.03C60.6384 104.03 55.2277 102.162 51.6636 98.4243C48.1424 94.644 46.3818 89.2527 46.3818 82.2504V52.8022H57.3319V81.9282C57.3319 86.0522 58.1048 89.2742 59.6507 91.5939C61.2395 93.9137 64.0307 95.0736 68.0243 95.0736C72.0608 95.0736 74.852 93.9137 76.3979 91.5939C77.9437 89.2742 78.7167 86.0522 78.7167 81.9282V52.8022H89.4091V82.2504C89.4091 89.2527 87.6485 94.644 84.1273 98.4243C80.6061 102.162 75.1955 104.03 67.8955 104.03Z" fill="black"/>
<path d="M98.5808 103.064V52.8022H109.402V103.064H98.5808Z" fill="black"/>
<path d="M119.188 103.064V52.8022H130.009V94.5581H151.007V103.064H119.188Z" fill="black"/>
<path d="M157.835 103.064V52.8022H175.742C184.673 52.8022 191.158 55.0146 195.194 59.4394C199.231 63.8211 201.249 69.9857 201.249 77.9331C201.249 85.8804 199.231 92.0665 195.194 96.4912C191.158 100.873 184.673 103.064 175.742 103.064H157.835ZM168.656 94.6869H175.097C178.404 94.6869 181.152 94.1929 183.342 93.2049C185.575 92.1738 187.25 90.4555 188.366 88.0498C189.483 85.6012 190.041 82.2289 190.041 77.9331C190.041 73.6372 189.483 70.2864 188.366 67.8807C187.25 65.4321 185.575 63.7137 183.342 62.7257C181.152 61.6947 178.404 61.1792 175.097 61.1792H168.656V94.6869Z" fill="black"/>
<path d="M741.009 103.064L733.73 53.1889V52.8022H744.294L750.284 94.5581H751.83L759.044 52.8022H776.951L784.229 94.5581H785.775L791.701 52.8022H801.621V53.1889L794.342 103.064H775.663L768.448 61.3081H766.902L759.688 103.064H741.009Z" fill="black"/>
<path d="M808.304 103.064V52.8022H819.126V103.064H808.304Z" fill="black"/>
<path d="M840.828 103.064V61.3081H825.948V52.8022H866.528V61.3081H851.649V103.064H840.828Z" fill="black"/>
<path d="M873.371 103.064V52.8022H884.192V71.9403H905.577V52.8022H916.398V103.064H905.577V80.7039H884.192V103.064H873.371Z" fill="black"/>
<path d="M941.683 103.064V52.8022H952.504V103.064H941.683Z" fill="black"/>
<path d="M974.206 103.064V61.3081H959.327V52.8022H999.906V61.3081H985.027V103.064H974.206Z" fill="black"/>
<path d="M1003.88 103.451C1001.86 103.451 1000.32 102.892 999.243 101.775C998.17 100.615 997.633 99.1117 997.633 97.2645C997.633 95.3743 998.17 93.8707 999.243 92.7538C1000.32 91.6369 1001.86 91.0784 1003.88 91.0784C1005.9 91.0784 1007.42 91.6369 1008.45 92.7538C1009.48 93.8707 1010 95.3743 1010 97.2645C1010 99.1117 1009.48 100.615 1008.45 101.775C1007.42 102.892 1005.9 103.451 1003.88 103.451Z" fill="black"/>
<path d="M299.735 106.82C297.305 106.82 294.95 106.525 292.668 105.936C290.386 105.421 288.325 104.169 286.484 102.18C284.644 100.192 283.135 97.0988 281.957 92.9012C280.779 88.6298 280.08 82.8488 279.859 75.5581C276.767 80.9341 273.344 85.7577 269.59 90.0291C265.909 94.3004 262.192 97.688 258.437 100.192C254.757 102.622 251.297 103.837 248.058 103.837C244.819 103.837 241.874 103.027 239.224 101.407C236.648 99.7868 234.586 97.062 233.04 93.2326C231.568 89.4031 230.832 84.2112 230.832 77.657C230.832 72.5756 231.274 67.4205 232.157 62.1919C233.04 56.8895 234.181 51.845 235.58 47.0581C236.979 42.1977 238.488 37.8527 240.107 34.0233C241.727 30.1938 243.31 27.1744 244.855 24.9651C246.475 22.7558 247.874 21.6512 249.051 21.6512C251.849 21.6512 253.91 22.3876 255.235 23.8605C256.56 25.2597 257.223 27.064 257.223 29.2733C257.223 30.2306 256.818 32.1085 256.008 34.907C255.198 37.6318 254.204 40.9457 253.027 44.8488C251.849 48.6783 250.634 52.8023 249.383 57.2209C248.205 61.5659 247.211 65.874 246.401 70.1453C245.592 74.4167 245.187 78.3198 245.187 81.8547C245.187 83.3275 245.297 84.5795 245.518 85.6105C245.812 86.5678 246.328 87.0465 247.064 87.0465C250.965 87.0465 254.573 85.5736 257.885 82.6279C261.271 79.6085 264.363 75.6318 267.161 70.6977C270.031 65.6899 272.571 60.2035 274.78 54.2384C277.062 48.1996 279.086 42.1608 280.853 36.1221C280.705 34.7965 280.595 33.5077 280.521 32.2558C280.521 31.0039 280.521 29.6415 280.521 28.1686C280.521 26.5484 281.147 24.8178 282.399 22.9767C283.65 21.1357 285.159 19.5891 286.926 18.3372C288.766 17.0116 290.496 16.3488 292.116 16.3488C293.956 16.3488 295.465 16.938 296.643 18.1163C297.894 19.2946 298.52 21.3566 298.52 24.3023C298.52 26.7326 298.41 28.7578 298.189 30.3779C298.042 31.9244 297.784 33.3973 297.416 34.7965C297.121 36.1957 296.79 37.7791 296.422 39.5465C296.128 41.2403 295.796 43.4496 295.428 46.1744C295.134 48.8992 294.876 52.3973 294.655 56.6686C294.508 60.9399 294.434 66.3159 294.434 72.7965C294.434 73.2384 294.434 73.6802 294.434 74.1221C294.434 74.4903 294.434 74.8954 294.434 75.3372C294.361 77.3992 294.398 79.4981 294.545 81.6337C294.692 83.7694 295.244 85.5368 296.201 86.936C297.158 88.3353 298.851 89.0349 301.281 89.0349C303.931 89.0349 306.434 87.3411 308.789 83.9535C311.145 80.5659 313.243 75.8527 315.083 69.8139C316.924 63.7015 318.506 56.5581 319.831 48.3837C321.156 40.1357 322.15 31.2248 322.813 21.6512C323.033 18.4109 323.586 15.9806 324.469 14.3605C325.426 12.7403 326.493 11.6725 327.671 11.157C328.849 10.5678 329.88 10.2733 330.763 10.2733C331.646 10.2733 332.714 10.4205 333.965 10.7151C335.217 11.0097 336.321 11.8566 337.278 13.2558C338.235 14.655 338.713 17.0116 338.713 20.3256C338.713 32.9922 337.793 44.1124 335.953 53.686C334.112 63.2597 331.72 71.4341 328.775 78.2093C325.831 84.9845 322.592 90.4709 319.058 94.6686C315.598 98.8663 312.175 101.922 308.789 103.837C305.403 105.826 302.385 106.82 299.735 106.82Z" fill="#4014C6"/>
<path d="M361.399 106.82C356.835 106.82 353.154 105.236 350.357 102.07C347.559 98.8295 346.161 93.6376 346.161 86.4942C346.161 81.9283 346.676 77.3624 347.706 72.7965C348.811 68.157 350.32 63.7752 352.234 59.6512C354.221 55.4535 356.503 51.7345 359.08 48.4942C361.73 45.2539 364.638 42.7132 367.803 40.8721C370.968 38.9574 374.244 38 377.631 38C383.372 38 387.863 39.5465 391.102 42.6395C394.341 45.7326 395.96 49.6725 395.96 54.4593C395.96 58.1415 394.93 61.4922 392.869 64.5116C390.881 67.4574 388.157 70.1085 384.697 72.4651C381.238 74.8217 377.373 76.9574 373.103 78.8721C368.834 80.7868 364.454 82.5174 359.963 84.0639C359.595 86.7151 359.411 89.0717 359.411 91.1337C359.411 92.3857 360.11 93.0116 361.509 93.0116C364.822 93.0116 368.355 92.4961 372.109 91.4651C375.937 90.3605 379.802 88.9612 383.704 87.2674C387.605 85.5 391.36 83.6957 394.967 81.8547C398.574 79.9399 401.85 78.1357 404.794 76.4419C407.812 74.6744 410.278 73.2752 412.192 72.2442C414.18 71.1395 415.468 70.5872 416.057 70.5872C417.676 70.5872 418.854 71.0659 419.59 72.0233C420.327 72.9806 420.695 74.0116 420.695 75.1163C420.695 75.6318 419.701 76.7732 417.713 78.5407C415.799 80.3081 413.149 82.407 409.763 84.8372C406.45 87.1938 402.696 89.6608 398.5 92.2384C394.378 94.7422 390.071 97.1357 385.581 99.4186C381.164 101.628 376.858 103.395 372.662 104.721C368.539 106.12 364.785 106.82 361.399 106.82ZM361.84 74.2326C364.859 72.4651 367.84 70.624 370.784 68.7093C373.803 66.7209 376.305 64.5116 378.293 62.0814C380.281 59.5775 381.274 56.6686 381.274 53.3546C381.274 52.3973 381.017 51.7713 380.501 51.4767C379.986 51.1085 379.25 50.9244 378.293 50.9244C375.717 50.9244 373.361 52.0659 371.226 54.3488C369.165 56.6318 367.325 59.5775 365.705 63.186C364.159 66.7209 362.871 70.4031 361.84 74.2326Z" fill="#4014C6"/>
<path d="M413.913 107.262C411.558 107.262 409.423 106.599 407.509 105.273C405.595 104.021 404.086 102.364 402.982 100.302C401.877 98.1667 401.325 95.8837 401.325 93.4535C401.325 88.8876 402.319 84.4322 404.307 80.0872C406.368 75.7422 409.055 71.6182 412.367 67.7151C415.68 63.812 419.287 60.2403 423.189 57C427.164 53.686 431.102 50.8508 435.004 48.4942C438.979 46.1376 442.586 44.2965 445.825 42.9709C449.138 41.6453 451.714 40.9826 453.554 40.9826C455.689 40.9826 457.419 41.4612 458.744 42.4186C460.143 43.3023 460.842 44.7016 460.842 46.6163C460.842 47.2054 460.695 47.6841 460.4 48.0523C461.357 48.2733 462.13 48.8256 462.719 49.7093C463.308 50.593 463.603 51.9186 463.603 53.686C463.603 54.4225 463.419 56.3372 463.051 59.4302C462.682 62.5233 462.278 66.2791 461.836 70.6977C461.468 75.1163 461.284 79.719 461.284 84.5058C461.284 85.2422 461.394 85.905 461.615 86.4942C461.836 87.0097 462.314 87.2674 463.051 87.2674C465.995 87.2674 468.976 86.6783 471.995 85.5C475.086 84.2481 478.068 82.7384 480.939 80.9709C483.883 79.1298 486.533 77.3256 488.889 75.5581C491.318 73.7171 493.343 72.2074 494.962 71.0291C496.655 69.7771 497.76 69.1512 498.275 69.1512C500.778 69.1512 502.029 70.4031 502.029 72.907C502.029 73.5698 501.219 74.969 499.6 77.1047C498.054 79.1667 495.919 81.5601 493.195 84.2849C490.472 86.936 487.417 89.5872 484.031 92.2384C480.718 94.8159 477.258 96.9515 473.651 98.6453C470.117 100.339 466.694 101.186 463.382 101.186C459.333 101.186 456.241 100.229 454.106 98.3139C452.045 96.3992 450.573 93.8217 449.69 90.5814C448.88 87.2674 448.438 83.5484 448.365 79.4244C444.61 84.8004 440.709 89.5872 436.66 93.7849C432.685 97.9089 428.746 101.186 424.845 103.616C420.943 106.047 417.299 107.262 413.913 107.262ZM453.002 51.9186C445.788 55.3798 439.31 59.3566 433.568 63.8488C427.826 68.2674 423.262 72.907 419.876 77.7674C416.563 82.6279 414.907 87.3043 414.907 91.7965C414.907 93.0484 415.496 93.6744 416.674 93.6744C418.072 93.6744 419.913 92.8643 422.195 91.2442C424.55 89.624 427.09 87.4884 429.814 84.8372C432.538 82.1124 435.261 79.093 437.985 75.7791C440.709 72.3915 443.248 68.9302 445.604 65.3953C447.96 61.8605 449.837 58.4729 451.236 55.2326C451.751 54.0543 452.34 52.9496 453.002 51.9186Z" fill="#4014C6"/>
<path d="M509.884 108.587C503.258 108.587 498.032 106.562 494.204 102.512C490.45 98.3876 488.572 92.5329 488.572 84.9477C488.572 80.8236 489.125 76 490.229 70.4767C491.333 64.8798 492.768 58.9884 494.535 52.8023C496.376 46.5426 498.326 40.3566 500.387 34.2442C502.522 28.1318 504.62 22.4612 506.681 17.2326C508.743 12.0039 510.546 7.62209 512.092 4.08721C513.417 1.3624 515.294 0 517.724 0C519.269 0 520.521 0.478683 521.478 1.43605C522.508 2.39341 523.024 3.93992 523.024 6.07558C523.024 7.10659 522.508 9.35271 521.478 12.814C520.447 16.2752 519.085 20.5465 517.392 25.6279C515.773 30.6357 514.006 36.0485 512.092 41.8663C510.252 47.6841 508.485 53.5388 506.792 59.4302C505.172 65.3217 503.847 70.8818 502.817 76.1105C501.786 81.2655 501.271 85.6473 501.271 89.2558C501.271 90.7287 501.676 91.907 502.485 92.7907C503.369 93.6744 504.51 94.1163 505.909 94.1163C508.927 94.1163 512.018 93.564 515.184 92.4593C518.423 91.3547 521.588 89.9554 524.68 88.2616C527.845 86.5678 530.827 84.7636 533.624 82.8488C536.422 80.9341 538.924 79.1298 541.133 77.436C543.415 75.6686 545.255 74.2694 546.654 73.2384C548.494 71.8391 549.746 71.1395 550.408 71.1395C552.911 71.1395 554.162 72.3546 554.162 74.7849C554.162 75.374 553.426 76.5891 551.954 78.4302C550.703 80.0504 548.936 82.1124 546.654 84.6163C544.372 87.1201 541.722 89.7713 538.704 92.5698C535.759 95.2946 532.594 97.8721 529.207 100.302C525.895 102.733 522.582 104.721 519.269 106.267C515.957 107.814 512.828 108.587 509.884 108.587Z" fill="#4014C6"/>
<path d="M620.516 47.3895C620.516 48.2733 620.221 49.0465 619.633 49.7093C619.044 50.3721 618.307 50.8876 617.424 51.2558C616.173 51.7713 614.001 52.4341 610.909 53.2442C607.817 54.0543 604.063 54.9748 599.646 56.0058C595.303 57.0368 590.629 58.1046 585.623 59.2093C580.617 60.2403 575.611 61.2345 570.606 62.1919C568.692 69.2616 566.741 76.5523 564.753 84.0639C562.766 91.5019 560.778 98.8295 558.791 106.047C558.054 108.624 557.171 110.576 556.141 111.901C555.11 113.3 553.343 114 550.84 114C548.117 114 546.276 113.116 545.319 111.349C544.436 109.655 544.325 107.335 544.988 104.39C546.902 96.3624 548.669 88.8876 550.288 81.9651C551.981 75.0426 553.343 69.4457 554.374 65.1744C549.957 65.9109 546.092 66.5 542.78 66.9419C539.467 67.3101 537.111 67.4574 535.713 67.3837C534.167 67.2364 532.879 66.6105 531.848 65.5058C530.817 64.4012 530.339 63.0388 530.412 61.4186C530.56 59.9457 531.222 58.6938 532.4 57.6628C533.578 56.5581 534.977 55.8953 536.596 55.6744C538.878 55.4535 541.823 55.1221 545.43 54.6802C549.037 54.2384 553.012 53.7229 557.355 53.1337C558.312 49.3779 559.416 45.5116 560.668 41.5349C561.919 37.4845 563.207 33.6182 564.533 29.936C565.931 26.1802 567.256 22.9031 568.508 20.1046C569.759 17.3062 570.9 15.281 571.931 14.0291C572.74 13.0717 573.734 12.3353 574.912 11.8198C576.164 11.3043 577.378 11.0465 578.556 11.0465C580.102 11.0465 581.353 11.5988 582.31 12.7035C583.267 13.8081 583.746 15.0969 583.746 16.5698C583.746 17.1589 583.709 17.7849 583.635 18.4477C583.562 19.0368 583.414 19.626 583.194 20.2151C581.795 23.8973 580.286 28.3527 578.666 33.5814C577.12 38.8101 575.501 44.5543 573.808 50.8139C579.329 50.0039 584.74 49.1938 590.04 48.3837C595.414 47.5 600.272 46.6899 604.615 45.9535C609.032 45.1434 612.566 44.4438 615.216 43.8546C616.688 43.3391 617.939 43.4496 618.97 44.186C620.001 44.8488 620.516 45.9167 620.516 47.3895Z" fill="#4014C6"/>
<path d="M606.789 111.68C603.403 111.68 600.974 110.723 599.501 108.808C598.029 106.893 597.293 104.095 597.293 100.413C597.293 97.0252 597.919 92.6066 599.17 87.157C600.495 81.6337 602.225 75.4845 604.36 68.7093C606.568 61.8605 609.034 54.8275 611.758 47.6105C614.482 40.3198 617.316 33.1764 620.261 26.1802C623.205 19.1105 626.076 12.6298 628.873 6.73837C630.198 4.16085 631.597 2.39341 633.069 1.43605C634.542 0.478683 636.161 0 637.928 0C639.621 0 641.056 0.478683 642.234 1.43605C643.412 2.31977 644.001 3.75581 644.001 5.74418C644.001 6.18604 643.412 7.87984 642.234 10.8256C641.056 13.6977 639.511 17.4535 637.597 22.093C635.683 26.6589 633.585 31.814 631.303 37.5581C629.021 43.2287 626.739 49.157 624.457 55.343C622.174 61.4554 620.113 67.4942 618.273 73.4593C616.433 79.4244 614.96 84.9477 613.856 90.0291C616.433 86.5678 619.193 82.7384 622.138 78.5407C625.156 74.2694 628.211 70.0349 631.303 65.8372C634.468 61.5659 637.56 57.6628 640.578 54.1279C643.67 50.593 646.541 47.7577 649.191 45.6221C651.841 43.4864 654.16 42.4186 656.147 42.4186C659.828 42.4186 662.773 43.4496 664.981 45.5116C667.263 47.5 668.404 50.9612 668.404 55.8953C668.404 58.1783 667.962 60.9399 667.079 64.1802C666.196 67.3469 665.128 70.6977 663.877 74.2326C662.699 77.6938 661.668 81.0446 660.785 84.2849C659.902 87.5252 659.46 90.3605 659.46 92.7907C659.46 94.1163 660.086 94.7791 661.337 94.7791C664.944 94.7791 668.588 94.0058 672.269 92.4593C676.023 90.9128 679.593 88.9981 682.98 86.7151C686.439 84.3585 689.568 82.0388 692.365 79.7558C695.236 77.3992 697.555 75.4477 699.322 73.9012C700.573 72.7229 701.714 71.9496 702.745 71.5814C703.775 71.1395 704.732 70.9186 705.616 70.9186C708.634 70.9186 710.143 72.4283 710.143 75.4477C710.143 76.0368 710.033 76.7733 709.812 77.657C709.591 78.4671 708.892 79.4981 707.714 80.75C706.536 82.0019 704.769 83.7694 702.414 86.0523C700.058 88.3353 697.298 90.7655 694.132 93.343C691.04 95.9205 687.654 98.3876 683.973 100.744C680.366 103.027 676.649 104.905 672.821 106.378C668.993 107.851 665.275 108.587 661.668 108.587C656.221 108.587 652.025 107.041 649.08 103.948C646.136 100.928 644.664 96.8043 644.664 91.5756C644.664 87.967 645.4 83.438 646.872 77.9884C648.344 72.4651 650.001 66.8314 651.841 61.0872C649.264 63.5911 646.577 66.5736 643.78 70.0349C640.983 73.4225 638.149 77.031 635.278 80.8605C632.407 84.6163 629.573 88.3353 626.775 92.0174C624.052 95.626 621.438 98.9399 618.935 101.959C616.433 104.905 614.151 107.262 612.089 109.029C610.028 110.797 608.261 111.68 606.789 111.68Z" fill="#4014C6"/>
</svg>
